<?xml version="1.0" encoding="UTF-8"?>
<svg version="1.1" xmlns="http://www.w3.org/2000/svg" width="1024" height="1024">
<path d="M0 0 C337.92 0 675.84 0 1024 0 C1024 337.92 1024 675.84 1024 1024 C686.08 1024 348.16 1024 0 1024 C0 686.08 0 348.16 0 0 Z " fill="#252C34" transform="translate(0,0)"/>
<path d="M0 0 C337.92 0 675.84 0 1024 0 C1024 337.92 1024 675.84 1024 1024 C686.08 1024 348.16 1024 0 1024 C0 686.08 0 348.16 0 0 Z M421 46 C419.77152344 46.41636719 418.54304688 46.83273438 417.27734375 47.26171875 C375.60771516 61.80733253 339.85863562 88.91695301 313.69921875 124.265625 C313.22782471 124.90016602 312.75643066 125.53470703 312.27075195 126.18847656 C310.83663194 128.1643316 310.83663194 128.1643316 309.2734375 131.125 C305.91657196 135.37010831 301.68274528 137.27427188 296.9375 139.75 C277.27163142 150.43882949 258.55135138 163.11408436 241 177 C240.32936523 177.52932129 239.65873047 178.05864258 238.96777344 178.60400391 C231.19685793 184.76546202 223.63182879 191.07891028 216.359375 197.82421875 C214.3608292 199.66724857 212.32684507 201.43460726 210.25 203.1875 C201.59248362 210.71577512 193.22622818 219.04981018 185.8359375 227.828125 C184.32484635 229.61571368 182.78730053 231.36556829 181.2265625 233.109375 C172.17884741 243.27840611 164.02500226 254.01362761 156 265 C155.4755127 265.70850098 154.95102539 266.41700195 154.41064453 267.14697266 C113.38191556 322.62187304 85.44512601 391.59865584 77.33984375 460.19335938 C77.10547643 462.12891014 76.85445316 464.06249194 76.58984375 465.99414062 C63.71540604 560.34869089 85.77380171 659.05108972 162.11206055 782.90991211 C168.14199701 790.83448354 174.47223943 798.4825467 181 806 C181.95132813 807.10214844 181.95132813 807.10214844 182.921875 808.2265625 C184.60271424 810.16184071 186.29994942 812.0815943 188 814 C188.60328125 814.69609375 189.2065625 815.3921875 189.828125 816.109375 C194.86890777 821.84278441 200.17496443 827.28071906 205.5625 832.6875 C206.27067871 833.400271 206.97885742 834.11304199 207.70849609 834.84741211 C232.92507885 859.99097951 263.05678709 881.52514206 294 899 C294.81114258 899.45826172 295.62228516 899.91652344 296.45800781 900.38867188 C335.50977979 922.31697611 377.27552273 938.27880709 421 948 C421.89444824 948.20173828 422.78889648 948.40347656 423.71044922 948.61132812 C447.2244004 953.80948255 471.92787241 956.66638888 496 957 C497.4907242 957.02595311 498.98144672 957.05200268 500.47216797 957.078125 C523.51444008 957.45314847 546.12514198 957.07256157 569 954 C570.25748047 953.83371094 571.51496094 953.66742187 572.81054688 953.49609375 C619.47811231 947.12267814 666.09893149 933.04604651 707.86474609 911.11035156 C710.31075318 909.8384055 712.77389468 908.60313545 715.23828125 907.3671875 C736.33419943 896.69765379 756.11538426 884.20756246 775 870 C775.88969482 869.33774414 775.88969482 869.33774414 776.79736328 868.66210938 C785.52742236 862.15765334 793.83930201 855.20117718 802 848 C802.72904541 847.35998047 803.45809082 846.71996094 804.20922852 846.06054688 C810.66626686 840.32902574 816.83870423 834.34752103 822.94116211 828.24414062 C824.55890192 826.6285932 826.18450636 825.02124966 827.81054688 823.4140625 C833.54128639 817.71392672 838.89251351 811.90097826 843.9309082 805.56542969 C845.91545172 803.10482989 847.97848687 800.75539347 850.1015625 798.4140625 C854.13010471 793.92705186 857.78058795 789.2136316 861.375 784.375 C862.02710449 783.499646 862.67920898 782.62429199 863.35107422 781.72241211 C868.83618616 774.31026343 874.04502021 766.77464376 879 759 C879.48114258 758.25266602 879.96228516 757.50533203 880.45800781 756.73535156 C899.22300471 727.49411821 914.37761731 696.72722567 926 664 C926.3088916 663.14970215 926.6177832 662.2994043 926.93603516 661.42333984 C941.31660698 621.71415323 950.1245532 577.55851275 950.16796875 535.32421875 C950.17129715 534.15655472 950.17462555 532.98889069 950.17805481 531.7858429 C950.1830825 529.3278543 950.18546443 526.86985897 950.18530273 524.41186523 C950.18747213 520.7347424 950.20562618 517.05792869 950.22460938 513.38085938 C950.27704408 492.13238776 948.92474458 471.217069 945.4375 450.25 C945.31128265 449.48128571 945.18506531 448.71257141 945.05502319 447.92056274 C931.11130487 363.92149965 892.48686481 286.02058484 834.47265625 223.71875 C832.7187527 221.79028733 831.04865022 219.86253416 829.40234375 217.84765625 C827.50239545 215.59552241 825.76323398 213.78409318 823.5 211.9375 C819.67985667 208.69289616 816.19312779 205.19928522 812.6875 201.625 C807.10434677 195.97295851 801.24769028 190.91429061 795 186 C793.89269518 185.09338371 792.78732373 184.18440248 791.68359375 183.2734375 C768.41976314 164.17254084 742.23588998 146.60486686 714.83496094 134.00439453 C712.053543 132.48194198 710.96874862 130.23263666 709.3125 127.5625 C702.86290986 117.56563528 695.10588908 108.68488115 687 100 C686.24203125 99.18789062 685.4840625 98.37578125 684.703125 97.5390625 C678.01509993 90.61061822 670.6952508 84.75016043 663 79 C662.1330249 78.3498291 662.1330249 78.3498291 661.24853516 77.68652344 C631.71476555 55.6842404 599.10310841 43.89715283 563 37 C562.09362793 36.82452637 561.18725586 36.64905273 560.25341797 36.46826172 C543.77466386 33.49337195 527.21484376 32.61701642 510.5 32.6875 C509.13902191 32.69023422 509.13902191 32.69023422 507.75054932 32.69302368 C478.19971128 32.79228739 449.00984149 36.18914547 421 46 Z " fill="#FEFAF7" transform="translate(0,0)"/>
<path d="M0 0 C1.56645264 0.25740967 1.56645264 0.25740967 3.16455078 0.52001953 C51.98095959 8.65972471 93.17030268 27.85941698 129 62 C129.77859375 62.72574219 130.5571875 63.45148438 131.359375 64.19921875 C141.01532726 73.46139991 148.76652817 84.39702188 156.22265625 95.453125 C157.90376225 98.02056609 157.90376225 98.02056609 160 100 C161.25660198 102.33916754 162.45674323 104.67973004 163.625 107.0625 C163.97546387 107.77277344 164.32592773 108.48304688 164.68701172 109.21484375 C165.79715423 111.47376828 166.89914489 113.73653687 168 116 C168.34933594 116.71269043 168.69867187 117.42538086 169.05859375 118.15966797 C185.85422393 152.51940764 194.30682856 190.03190198 198 228 C198.14574463 229.35049438 198.14574463 229.35049438 198.29443359 230.72827148 C198.97728808 237.95067917 199.03494306 245.09019071 199 252.33984375 C199.00054202 255.47046521 199.00396775 258.60107106 199.00830078 261.73168945 C199.00273426 263.88151353 198.98270926 266.03134545 198.94873047 268.1809082 C198.90352126 271.31866507 198.91533896 274.45193169 198.9375 277.58984375 C198.89592773 279.02432106 198.89592773 279.02432106 198.85351562 280.48777771 C198.90328943 283.26342935 199.04778314 285.38863772 200 288 C202.11381048 290.0068484 204.18251649 291.34449804 206.74511719 292.72389221 C213.21081878 296.38303233 217.48637872 303.83185723 219.53491211 310.82641602 C222.83010599 326.22647435 219.78567141 344.44574095 218.625 360.0625 C218.56187622 360.93507446 218.49875244 361.80764893 218.43371582 362.70666504 C218.24817106 365.2335683 218.05201691 367.75939593 217.8515625 370.28515625 C217.79624359 371.03122635 217.74092468 371.77729645 217.68392944 372.54597473 C216.73343596 383.92656391 214.0244959 393.59338525 206 402 C204.906875 402.598125 203.81375 403.19625 202.6875 403.8125 C199.84574183 405.62811825 199.84574183 405.62811825 199.70651245 407.86500549 C199.72972565 408.5934819 199.75293884 409.32195831 199.77685547 410.07250977 C199.80156921 410.878909 199.82628296 411.68530823 199.85174561 412.5161438 C200.08174516 416.36955959 200.44036786 420.19280708 200.8828125 424.02734375 C201.02440292 425.29990524 201.02440292 425.29990524 201.16885376 426.59817505 C201.48106294 429.37873401 201.80210712 432.15816248 202.125 434.9375 C202.29255798 436.39432693 202.29255798 436.39432693 202.46350098 437.88058472 C205.60735627 465.11651843 209.62580012 492.20526154 213.83338928 519.29455566 C215.93736845 532.85584448 217.99760936 546.42332849 220 560 C220.13702332 560.92508362 220.27404663 561.85016724 220.41522217 562.80328369 C223.27658407 582.26804407 224.36203567 601.44574641 224.4375 621.125 C224.44403595 622.13774994 224.4505719 623.15049988 224.45730591 624.19393921 C224.5201653 640.28676378 223.34271535 655.86267587 218.5 671.3125 C218.30019531 672.00021484 218.10039063 672.68792969 217.89453125 673.39648438 C216.71670156 677.2938253 215.25550347 680.61018811 213 684 C211.45802548 683.02131821 209.91644929 682.04200884 208.375 681.0625 C207.35019531 680.41410156 206.32539062 679.76570312 205.26953125 679.09765625 C203.20929787 677.77585777 201.16271629 676.43229195 199.13671875 675.05859375 C167.4025488 653.80839354 114.42902607 624 75 624 C74.34 624.66 73.68 625.32 73 626 C73 624.68 73 623.36 73 622 C71.25976562 621.65388672 71.25976562 621.65388672 69.484375 621.30078125 C46.66366052 616.6049898 46.66366052 616.6049898 40.8046875 610.83984375 C36.66729846 604.32927701 36.71043544 597.2070341 36.76953125 589.734375 C36.76998947 588.7785553 36.77044769 587.8227356 36.7709198 586.83795166 C36.77392422 584.83108264 36.78175575 582.82421557 36.79418945 580.81738281 C36.8125277 577.74535887 36.81469826 574.67363567 36.81445312 571.6015625 C36.81936617 569.64583073 36.82519355 567.69010099 36.83203125 565.734375 C36.83314407 564.81767029 36.8342569 563.90096558 36.83540344 562.95648193 C36.84497322 561.67429779 36.84497322 561.67429779 36.85473633 560.36621094 C36.85854813 559.61756775 36.86235992 558.86892456 36.86628723 558.09759521 C37 556 37 556 37.57133484 553.88214111 C38.2294333 550.99262668 36.92682745 549.3747735 35.5625 546.8125 C33.18955939 541.7858765 31.41236953 537.52131362 33 532 C36.33791997 526.49879465 41.02816325 522.44274303 47 520 C50.74376663 519.13789364 54.49486705 518.71237903 58.3125 518.3125 C59.36904785 518.18423828 60.4255957 518.05597656 61.51416016 517.92382812 C66.43456299 517.3558892 71.267464 516.92940416 76.22265625 516.98046875 C84.444036 517.17970133 84.444036 517.17970133 91.90625 514.09375 C94.10704308 511.78152436 95.99483209 509.44314127 97.77978516 506.79833984 C99.11191512 504.83506067 100.5224434 502.94628228 101.94921875 501.05078125 C108.79440509 491.82395738 114.72657844 482.19909264 120 472 C120.3722168 471.28682617 120.74443359 470.57365234 121.12792969 469.83886719 C125.92901222 460.52730473 129.8937094 451.05004227 133.25 441.125 C133.70741577 439.78308594 133.70741577 439.78308594 134.17407227 438.4140625 C135.18840188 435.293554 136.10428884 432.15672753 137 429 C137.30812119 427.95365387 137.30812119 427.95365387 137.62246704 426.88616943 C142.21744095 410.9897352 143.08687618 395.34342622 143.6875 378.875 C143.79971489 376.20333376 143.91360264 373.531809 144.03051758 370.86035156 C144.25845727 365.61976418 144.47742725 360.37887238 144.69140625 355.13769531 C145.12939865 344.68443833 145.76838204 334.24452003 146.44213867 323.80419922 C147.46535604 307.0632569 146.5611351 291.78565075 144 275.25 C143.56893926 272.40326329 143.14118237 269.55606512 142.71606445 266.70843506 C142.4530994 264.95378361 142.18620313 263.19971541 141.91479492 261.4463501 C141.79467041 260.65742371 141.6745459 259.86849731 141.55078125 259.05566406 C141.44419189 258.3666803 141.33760254 257.67769653 141.2277832 256.96783447 C141 255 141 255 141 251 C140.32324219 250.75894531 139.64648438 250.51789063 138.94921875 250.26953125 C135.35896514 248.72405784 132.11154044 246.76408443 128.8125 244.6875 C128.11833984 244.25091064 127.42417969 243.81432129 126.70898438 243.36450195 C113.07681109 234.67414349 100.24841939 224.90345564 87.85107422 214.54248047 C86.12030894 213.10025216 84.37633741 211.67585067 82.62890625 210.25390625 C75.09414357 204.04397361 68.11264301 197.31722231 61.1875 190.4375 C60.31585205 189.57511719 59.4442041 188.71273437 58.54614258 187.82421875 C38.16434457 167.34350822 22.78906832 143.25614723 11 117 C10.45472656 117.96679688 9.90945313 118.93359375 9.34765625 119.9296875 C4.61970152 128.1522635 -0.38713118 135.14401101 -7 142 C-8.21644259 143.38877196 -9.42528026 144.78425637 -10.625 146.1875 C-16.29807216 152.66360977 -22.35559749 158.23347806 -29.0703125 163.62890625 C-31.9446717 165.95522096 -34.75148596 168.34778994 -37.5625 170.75 C-50.84752391 181.80656829 -65.10807429 191.26736733 -80 200 C-80.78648926 200.46728516 -81.57297852 200.93457031 -82.38330078 201.41601562 C-114.70341156 220.58885276 -148.80773177 235.00457781 -184 248 C-185.66240723 248.61536621 -185.66240723 248.61536621 -187.35839844 249.24316406 C-201.78433443 254.56480842 -216.30486622 259.47450898 -231 264 C-231.88922787 269.50728464 -232.75869852 275.01713135 -233.61083984 280.53027344 C-233.93836967 282.6088755 -234.28880986 284.683849 -234.64453125 286.7578125 C-235.80930832 294.11518131 -236.15116778 301.276582 -236.140625 308.71484375 C-236.13953232 309.75448273 -236.13843964 310.7941217 -236.13731384 311.86526489 C-236.06159409 324.72284907 -235.3053795 337.54203635 -234.5625 350.375 C-234.28977828 355.19513749 -234.02152463 360.01551443 -233.75390625 364.8359375 C-233.68692032 366.01288681 -233.61993439 367.18983612 -233.55091858 368.40245056 C-233.15847654 375.46176027 -232.87612634 382.51625065 -232.66635132 389.58320618 C-232.36538185 399.38346367 -231.95983182 408.67083242 -229.4375 418.1875 C-229.17211426 419.25025146 -228.90672852 420.31300293 -228.63330078 421.40795898 C-218.99013041 458.78426558 -201.59259663 492.07575589 -175 520 C-174.01966797 521.05960938 -174.01966797 521.05960938 -173.01953125 522.140625 C-163.15161531 532.49246859 -151.12428239 540.47033521 -139.2265625 548.2734375 C-138.53135498 548.7475708 -137.83614746 549.2217041 -137.11987305 549.71020508 C-135.04145257 551.07149162 -135.04145257 551.07149162 -132.70239258 551.8269043 C-130.01564682 552.91771654 -128.74387798 553.65463001 -127 556 C-125.9419192 562.03652787 -126.20664775 567.95989444 -126.4375 574.0625 C-126.46909131 575.7206385 -126.49711983 577.37884894 -126.52148438 579.03710938 C-127.02399496 606.86428228 -127.02399496 606.86428228 -132.84765625 612.921875 C-137.5923162 616.04970535 -142.74234963 617.25474952 -148.1875 618.75 C-149.29287109 619.06582031 -150.39824219 619.38164063 -151.53710938 619.70703125 C-159.65183644 622 -159.65183644 622 -162 622 C-162 622.66 -162 623.32 -162 624 C-163.23105469 624.09023438 -164.46210938 624.18046875 -165.73046875 624.2734375 C-171.82586848 624.95638879 -177.48572544 626.76959251 -183.3125 628.625 C-185.02240112 629.16133057 -185.02240112 629.16133057 -186.7668457 629.70849609 C-202.0644548 634.54630212 -217.21652448 639.7502237 -232 646 C-232.70962891 646.29535645 -233.41925781 646.59071289 -234.15039062 646.89501953 C-255.13047584 655.69384719 -275.0314729 666.84180512 -293.73022461 679.78393555 C-294.53210205 680.33863525 -295.33397949 680.89333496 -296.16015625 681.46484375 C-296.85761963 681.955896 -297.55508301 682.44694824 -298.27368164 682.95288086 C-300 684 -300 684 -302 684 C-302 684.66 -302 685.32 -302 686 C-305 685 -305 685 -306.28125 682.62890625 C-314.35064744 662.32609539 -316.59776469 643.4298885 -316.5 621.6875 C-316.49690826 620.54575317 -316.49381653 619.40400635 -316.4906311 618.22766113 C-316.30757471 579.72913355 -309.92238889 542.13916268 -304.02807617 504.1965332 C-300.65989744 482.50699548 -297.42830326 460.81828557 -295 439 C-294.91834595 438.26755066 -294.83669189 437.53510132 -294.75256348 436.78045654 C-294.18449011 431.64781305 -293.6453107 426.51268913 -293.125 421.375 C-292.99222656 420.08585693 -292.85945313 418.79671387 -292.72265625 417.46850586 C-292.61050781 416.2903833 -292.49835938 415.11226074 -292.3828125 413.8984375 C-292.28371582 412.87411621 -292.18461914 411.84979492 -292.08251953 410.79443359 C-291.99886521 407.96157146 -292.17050682 405.70975577 -293 403 C-293.886875 402.319375 -294.77375 401.63875 -295.6875 400.9375 C-302.79415458 395.45766996 -305.26050053 386.29784628 -306.54882812 377.80737305 C-307.44240396 370.2666181 -307.93808601 362.69571031 -308.43261719 355.11987305 C-308.62394093 352.20364277 -308.82692291 349.28839169 -309.03125 346.37304688 C-311.5913835 308.87855957 -311.5913835 308.87855957 -302 297 C-298.31243489 293.27570615 -294.71902338 290.28678386 -290 288 C-289.98018066 286.93491211 -289.96036133 285.86982422 -289.93994141 284.77246094 C-289.06051576 238.96842059 -287.29745582 192.68532222 -272 149 C-271.57098389 147.74243896 -271.57098389 147.74243896 -271.13330078 146.45947266 C-267.14651266 134.80912291 -262.77518044 123.6236638 -256.94384766 112.77001953 C-256.03553797 111.06664519 -255.16344107 109.34411104 -254.29296875 107.62109375 C-229.65784079 59.67778852 -182.00027597 25.28536938 -131.640625 8.75 C-117.34834546 4.23047012 -102.84493789 1.03205561 -88 -1 C-87.29085449 -1.10441406 -86.58170898 -1.20882812 -85.85107422 -1.31640625 C-58.03178123 -5.27716164 -27.64213798 -4.76588586 0 0 Z " fill="#3D261D" transform="translate(556,36)"/>
<path d="M0 0 C1.38099345 2.71648906 2.66252872 5.45747251 3.890625 8.24609375 C14.86720896 32.61396769 30.49058401 53.83826979 49 73 C49.898396 73.93126709 49.898396 73.93126709 50.81494141 74.88134766 C57.66191753 81.94035917 64.54605167 88.75247238 72.28515625 94.84375 C74.73984173 96.79337069 77.11177418 98.81537929 79.47509766 100.87402344 C91.86772701 111.61608112 105.42449598 120.84289633 119.23046875 129.66015625 C119.85646973 130.06693604 120.4824707 130.47371582 121.12744141 130.89282227 C122.96746742 132.04373258 122.96746742 132.04373258 124.96240234 132.79272461 C126.84765625 133.59375 126.84765625 133.59375 130 136 C131.40625593 139.72761944 131.80979202 143.49362597 132.25 147.4375 C132.39856445 148.55116943 132.54712891 149.66483887 132.70019531 150.81225586 C133.00466523 153.10213693 133.29728229 155.3936247 133.578125 157.68652344 C133.96467875 160.722581 134.41532396 163.73713611 134.90625 166.7578125 C135.04901367 167.6557251 135.19177734 168.5536377 135.33886719 169.47875977 C135.59973039 171.11813936 135.86543173 172.75676227 136.13769531 174.39428711 C138.09056061 187.51011549 136.95745438 201.06901164 136.16015625 214.25 C136.07241353 215.76144813 135.98513961 217.27292353 135.89830017 218.78442383 C135.67079052 222.72738874 135.43818416 226.67003396 135.20404053 230.61260986 C134.8328909 236.87285891 134.46863158 243.13350938 134.10609436 249.39426231 C133.9733016 251.67640914 133.838317 253.9584197 133.70324707 256.24043274 C133.25332517 263.93095472 132.89261504 271.61316359 132.66096497 279.31404114 C132.3585523 289.04097357 131.52621156 297.90209282 128.875 307.3125 C128.56006592 308.48852783 128.24513184 309.66455566 127.9206543 310.8762207 C123.88441661 325.58720518 118.52665591 339.22037864 112 353 C111.27067261 354.54046997 111.27067261 354.54046997 110.52661133 356.11206055 C105.68056734 366.08455161 99.80417409 375.22669885 93.125 384.0625 C92.65964844 384.69220703 92.19429687 385.32191406 91.71484375 385.97070312 C90.73009855 387.28149666 89.72486804 388.57711011 88.70141602 389.85791016 C87.454602 391.42765419 86.25858909 393.03810819 85.09350586 394.66943359 C82.05802236 398.5809338 79.71442752 401.47796675 74.88183594 402.94946289 C71.33152639 403.36196288 67.8862316 403.48780704 64.3125 403.5 C61.81369874 403.59497516 59.31499666 403.69259942 56.81640625 403.79296875 C55.04160889 403.84203369 55.04160889 403.84203369 53.23095703 403.89208984 C44.012077 404.19998957 35.22484148 404.73266763 28 411 C27.47535156 411.4434375 26.95070313 411.886875 26.41015625 412.34375 C23.71385393 415.03258334 22.62587834 417.48374353 22.375 421.1875 C22.62062517 426.18470168 24.6818347 430.15856762 27.00390625 434.51953125 C28.16892369 437.42065311 27.78628785 438.08534016 27 441 C26.90736091 442.45325923 26.86215068 443.9100209 26.85473633 445.36621094 C26.84835648 446.22100037 26.84197662 447.07578979 26.83540344 447.95648193 C26.83429062 448.87318665 26.8331778 449.78989136 26.83203125 450.734375 C26.82870285 451.6863678 26.82537445 452.6383606 26.82194519 453.61920166 C26.81688584 455.63317381 26.81453656 457.64715432 26.81469727 459.66113281 C26.81251796 462.72475218 26.79437146 465.78800715 26.77539062 468.8515625 C26.77245497 470.81249878 26.77047133 472.77343675 26.76953125 474.734375 C26.75875298 476.09728668 26.75875298 476.09728668 26.74775696 477.48773193 C26.77101142 484.0438911 27.02209015 490.28037395 31 495.75 C39.76353825 502.32265369 51.57678012 504.22955811 62 507 C61.45521531 512.42231011 59.5406588 516.46625489 57 521.1875 C56.59918213 521.93636475 56.19836426 522.68522949 55.78540039 523.45678711 C52.19185283 529.98074955 48.06393152 535.51559764 43 541 C42.38898438 541.6909375 41.77796875 542.381875 41.1484375 543.09375 C20.5856089 565.14410237 -13.54300859 577.99477076 -43.21923828 579.12231445 C-47.08402216 579.20729143 -50.94694143 579.24659813 -54.8125 579.25 C-55.50152405 579.25067474 -56.1905481 579.25134949 -56.90045166 579.25204468 C-68.15593486 579.23457584 -79.01780904 578.61177395 -90 576 C-90.7228418 575.82839355 -91.44568359 575.65678711 -92.19042969 575.47998047 C-102.73296646 572.87115724 -112.34259126 568.92230525 -122 564 C-122.97582031 563.51660156 -123.95164062 563.03320312 -124.95703125 562.53515625 C-143.63722089 552.88773356 -158.4835289 538.53622783 -168.5 520.125 C-169.00781006 519.1976001 -169.00781006 519.1976001 -169.52587891 518.25146484 C-171.47621448 514.51542585 -172.5391228 511.1863012 -173 507 C-171.27268331 506.45780258 -169.5453027 505.91580808 -167.81762695 505.37475586 C-166.34961082 504.91462164 -164.88200247 504.45318453 -163.41479492 503.99047852 C-159.39818263 502.72859689 -155.37436876 501.54696339 -151.3125 500.4375 C-147.48925902 499.2873149 -144.79147167 497.96593865 -142 495 C-139.39262823 489.47043268 -139.36580226 484.02209999 -139 478 C-138.89508815 476.56848121 -138.78958819 475.13700544 -138.68359375 473.70556641 C-138.40330872 469.73216673 -138.22904432 465.76202627 -138.10058594 461.78100586 C-138.03325273 460.12856406 -137.93728198 458.47705335 -137.81347656 456.82788086 C-137.16762522 448.7653906 -137.16762522 448.7653906 -139 441 C-142.51059151 437.03917875 -147.27053127 435.00914049 -152.0406189 432.93591309 C-155.29382554 431.38199452 -158.15500691 429.30366189 -161.0625 427.1875 C-161.70896484 426.72537109 -162.35542969 426.26324219 -163.02148438 425.78710938 C-197.32702054 400.09124206 -221.13706882 366.0480369 -234.875 325.4375 C-235.21998535 324.42373291 -235.5649707 323.40996582 -235.92041016 322.36547852 C-237.03198173 318.92993182 -238.03124608 315.47864712 -239 312 C-239.21003662 311.26826569 -239.42007324 310.53653137 -239.63647461 309.78262329 C-244.24977124 293.33840562 -245.09960051 276.89034844 -245.67572021 259.92889404 C-245.79955419 256.40059238 -245.9454005 252.87321096 -246.08984375 249.34570312 C-246.25622441 245.24972601 -246.42052409 241.15372351 -246.57307434 237.0572052 C-246.84459323 229.77387314 -247.15576655 222.49600277 -247.55859375 215.21875 C-248.45518902 198.87209082 -248.30616723 183.05193516 -246.125 166.8125 C-245.95137939 165.51723389 -245.77775879 164.22196777 -245.59887695 162.88745117 C-243.92328055 151.22019214 -243.92328055 151.22019214 -242 148 C-239.64588152 146.84292692 -237.6455976 146.07290726 -235.16015625 145.34375 C-234.45917313 145.11997177 -233.75819 144.89619354 -233.03596497 144.66563416 C-231.51491197 144.1816141 -229.99111754 143.7061448 -228.46502686 143.23825073 C-224.35209542 141.97442526 -220.26158415 140.64119727 -216.16796875 139.31640625 C-215.32320984 139.04474136 -214.47845093 138.77307648 -213.60809326 138.49317932 C-181.46580655 128.10411854 -150.21673981 115.06566961 -120 100 C-119.07848145 99.54125488 -118.15696289 99.08250977 -117.20751953 98.60986328 C-73.74460057 76.81168269 -22.89927303 44.5327571 0 0 Z " fill="#FEDBB1" transform="translate(567,151)"/>
<path d="M0 0 C31.43153985 15.14467196 60.95563977 34.76715119 87 58 C87.93585938 58.825 88.87171875 59.65 89.8359375 60.5 C94.15189594 64.3364075 98.31565725 68.26566524 102.35546875 72.390625 C104.00460714 74.00450865 105.7204722 75.46968549 107.5 76.9375 C110.6199407 79.56952046 113.22111699 82.43529096 115.859375 85.54296875 C118.07355183 88.08442354 120.36005325 90.54107667 122.66870117 92.99633789 C128.73272734 99.45080786 134.55107917 106.01237932 140 113 C140.58152832 113.74137207 141.16305664 114.48274414 141.76220703 115.24658203 C150.79641807 126.80092167 159.3256591 138.49885345 167 151 C167.38704102 151.62535645 167.77408203 152.25071289 168.17285156 152.89501953 C170.84653857 157.22639248 173.44175939 161.59960273 176 166 C176.37415039 166.63856934 176.74830078 167.27713867 177.13378906 167.93505859 C190.3076241 190.54661569 201.3205432 214.32137423 210 239 C210.38494629 240.09038574 210.76989258 241.18077148 211.16650391 242.30419922 C219.70329975 266.82737018 225.8076839 291.9909342 229.875 317.625 C230.06610352 318.81834961 230.25720703 320.01169922 230.45410156 321.24121094 C233.59557115 342.31927456 234.37675088 363.40240911 234.3125 384.6875 C234.31100952 385.9146875 234.30951904 387.141875 234.3079834 388.40625 C234.26858937 406.46870415 233.75118644 424.12321741 231 442 C230.86078125 442.98452148 230.7215625 443.96904297 230.578125 444.98339844 C219.70054896 521.75592006 188.45059901 595.37628876 140 656 C139.19433594 657.010625 138.38867188 658.02125 137.55859375 659.0625 C133.88735938 663.61071787 130.18445032 667.91048485 126 672 C122.39999279 666.63618228 118.8540189 661.2415246 115.35888672 655.80883789 C106.33835547 641.81264184 97.03841252 628.48154295 86 616 C85.29327148 615.19852539 85.29327148 615.19852539 84.57226562 614.38085938 C79.66738357 608.84697471 74.71270367 603.48834143 69.04296875 598.71875 C66.56486515 596.63392097 64.1579519 594.47789908 61.75 592.3125 C60.94046875 591.58675781 60.1309375 590.86101563 59.296875 590.11328125 C57.13902136 588.12790911 55.05657728 586.08959572 53 584 C53.47179687 582.90558594 53.47179687 582.90558594 53.953125 581.7890625 C56.6703788 575.15961799 58.71425564 568.67673356 60.25 561.6875 C60.41274414 560.94773926 60.57548828 560.20797852 60.74316406 559.44580078 C62.44468048 551.36630721 63.17152007 543.47311835 63.2734375 535.23046875 C63.28619217 534.29503738 63.29894684 533.35960602 63.31208801 532.39582825 C63.76921335 490.45721595 57.51908561 450.08347131 51.10058594 408.76464844 C48.36138222 391.11580029 45.72402003 373.46458322 43.4375 355.75 C43.32157501 354.85888519 43.20565002 353.96777039 43.08621216 353.0496521 C41.89184288 343.82157906 40.81104382 334.58322562 39.84765625 325.328125 C39.76156601 324.52550232 39.67547577 323.72287964 39.58677673 322.89593506 C38.46902925 311.78190013 38.46902925 311.78190013 39 307 C40.79296875 304.90625 40.79296875 304.90625 43.1875 303.5 C48.25360145 300.07480562 50.52840406 296.516769 53 291 C53.4125 290.113125 53.825 289.22625 54.25 288.3125 C56.00371091 282.90522469 56.30616368 277.21488082 56.75390625 271.578125 C56.81935135 270.76845779 56.88479645 269.95879059 56.95222473 269.12458801 C58.11955463 254.45424669 59.28618521 239.7860182 59.375 225.0625 C59.38861572 224.05413086 59.40223145 223.04576172 59.41625977 222.00683594 C59.35457513 212.15419349 56.82374588 204.23499843 50 197 C46.52400388 194.03091998 42.79875265 191.53250177 39 189 C38.62145996 187.17033386 38.62145996 187.17033386 38.61523438 184.91870117 C38.60499237 184.07045776 38.59475037 183.22221436 38.584198 182.3482666 C38.58892624 180.95964417 38.58892624 180.95964417 38.59375 179.54296875 C38.57381279 177.5562329 38.55378981 175.5694979 38.53369141 173.58276367 C38.52863586 172.53816986 38.52358032 171.49357605 38.51837158 170.41732788 C38.40851092 151.10320254 37.68982999 132.14526051 35 113 C34.88398437 112.15953125 34.76796875 111.3190625 34.6484375 110.453125 C33.9106401 105.27138512 32.99278153 100.1382128 32 95 C31.83806152 94.12698242 31.67612305 93.25396484 31.50927734 92.35449219 C25.96063527 62.64901965 16.95503119 35.06013146 2.3659668 8.57275391 C1.68594604 7.32437744 1.68594604 7.32437744 0.9921875 6.05078125 C0.58339355 5.31512939 0.17459961 4.57947754 -0.24658203 3.8215332 C-0.49520996 3.22042725 -0.74383789 2.61932129 -1 2 C-0.67 1.34 -0.34 0.68 0 0 Z " fill="#8B5498" transform="translate(716,135)"/>
<path d="M0 0 C0.33 0.99 0.66 1.98 1 3 C-0.19518062 5.29204304 -1.45076331 7.43460746 -2.8125 9.625 C-9.2429207 20.48944389 -13.5913448 32.20520231 -18 44 C-18.27328125 44.72574219 -18.5465625 45.45148438 -18.828125 46.19921875 C-32.01908649 81.74153165 -37.32996496 121.55087322 -36.96484375 159.359375 C-36.95809843 161.95247892 -36.95507899 164.54556005 -36.95336914 167.13867188 C-36.94265812 168.90121125 -36.91557414 170.66371657 -36.87329102 172.42578125 C-36.54651837 187.24309034 -36.54651837 187.24309034 -40.19628906 191.65478516 C-42.73048818 193.41492672 -45.21188344 194.69792689 -48 196 C-53.76115602 200.95495788 -56.77865708 208.66026118 -58 216 C-58.55789328 227.4237511 -57.62646118 238.88055665 -56.828125 250.27124023 C-56.62463741 253.19270576 -56.4329491 256.11478838 -56.2421875 259.03710938 C-55.5512755 276.72359223 -55.5512755 276.72359223 -50.3125 293.375 C-49.85488281 294.31085938 -49.39726562 295.24671875 -48.92578125 296.2109375 C-47.09795021 298.85814107 -45.82470745 299.89550139 -43.27734375 301.7109375 C-41.12833192 303.49054793 -40.13095979 304.3877368 -39.54223633 307.14013672 C-39.58276206 309.89312982 -39.87438208 312.52191007 -40.25 315.25 C-40.37060791 316.34256104 -40.49121582 317.43512207 -40.61547852 318.56079102 C-40.96964848 321.70209667 -41.35848715 324.8373953 -41.75396729 327.97369385 C-42.08667829 330.71387561 -42.37349622 333.45800941 -42.65907288 336.20344543 C-45.63926574 364.7854506 -50.04497004 393.18078383 -54.34087276 421.58755398 C-57.03004484 439.37291024 -59.70663333 457.15822971 -62 475 C-62.11741547 475.91095428 -62.23483093 476.82190857 -62.35580444 477.76046753 C-64.00988412 491.00207656 -64.37254999 504.17963225 -64.37060547 517.51708984 C-64.37498662 520.86477296 -64.41149683 524.21114107 -64.44921875 527.55859375 C-64.54682741 546.15547728 -62.87540357 563.96428057 -55.26953125 581.1015625 C-54.23928086 583.4537034 -53.57331946 585.52105051 -53 588 C-54.40185547 589.07701172 -54.40185547 589.07701172 -55.83203125 590.17578125 C-79.19703804 608.44845344 -97.044155 629.96092898 -112.73583984 654.99072266 C-114.85911907 658.36549826 -117.02627446 661.71195592 -119.1875 665.0625 C-120.4591464 667.04114582 -121.72954005 669.02059203 -123 671 C-127.02257471 668.03524011 -130.0536327 664.69872197 -133.0625 660.75 C-133.53655273 660.13503662 -134.01060547 659.52007324 -134.49902344 658.88647461 C-135.50181752 657.58202034 -136.50160159 656.27524724 -137.49853516 654.96630859 C-138.93955487 653.07915855 -140.39598972 651.20492063 -141.85546875 649.33203125 C-202.1593825 571.2567058 -231.85424491 475.28698247 -228.26171875 327.84375 C-217.41663861 247.03879908 -183.89180892 169.24183406 -131 107 C-130.09236424 105.91803894 -129.18481745 104.83600324 -128.27734375 103.75390625 C-114.94826795 87.94930333 -100.83506965 72.33932498 -85 59 C-84.0821875 58.20464844 -83.164375 57.40929687 -82.21875 56.58984375 C-56.87780939 34.71525783 -29.06097321 16.50509834 0 0 Z " fill="#8B5498" transform="translate(305,135)"/>
<path d="M0 0 C0.84203979 0.00093658 1.68407959 0.00187317 2.55163574 0.00283813 C28.86804734 0.06621582 55.43593321 2.61001937 80.5 11.1875 C81.24958984 11.44337891 81.99917969 11.69925781 82.77148438 11.96289062 C131.96078786 29.02699512 170.04061939 62.67792332 192.75 109.5 C203.4224672 132.20112728 208.59701216 156.07513249 212.25 180.75 C212.3570929 181.47061615 212.46418579 182.1912323 212.57452393 182.9336853 C214.8923174 198.69310723 215.69858404 214.32114114 216.05224609 230.22436523 C216.10379167 232.4869321 216.16098365 234.7493035 216.21875 237.01171875 C216.23911316 238.05062508 216.23911316 238.05062508 216.2598877 239.11051941 C216.31510994 242.77258078 216.31510994 242.77258078 217.5 246.1875 C216.77554687 246.41824219 216.05109375 246.64898437 215.3046875 246.88671875 C207.21574155 249.61538985 201.67053121 252.20716842 197.34936523 259.97387695 C195.61214059 264.50144691 195.8154648 269.33119098 195.75 274.125 C195.70552734 275.72311523 195.70552734 275.72311523 195.66015625 277.35351562 C195.58989431 279.96491787 195.53698252 282.57545004 195.5 285.1875 C195.17 285.1875 194.84 285.1875 194.5 285.1875 C194.49742187 284.01445312 194.49484375 282.84140625 194.4921875 281.6328125 C194.215228 265.65522241 191.95815844 250.08691925 189.58349609 234.31103516 C189.38052162 232.95918877 189.38052162 232.95918877 189.17344666 231.58003235 C188.91546219 229.87165421 188.65420342 228.1637663 188.38917542 226.45646667 C187.85877158 222.97638975 187.5 219.71692133 187.5 216.1875 C186.82324219 215.94644531 186.14648438 215.70539063 185.44921875 215.45703125 C181.85896514 213.91155784 178.61154044 211.95158443 175.3125 209.875 C174.61833984 209.43841064 173.92417969 209.00182129 173.20898438 208.55200195 C159.57681109 199.86164349 146.74841939 190.09095564 134.35107422 179.72998047 C132.62030894 178.28775216 130.87633741 176.86335067 129.12890625 175.44140625 C121.59414357 169.23147361 114.61264301 162.50472231 107.6875 155.625 C106.81585205 154.76261719 105.9442041 153.90023437 105.04614258 153.01171875 C84.66434457 132.53100822 69.28906832 108.44364723 57.5 82.1875 C56.95472656 83.15429688 56.40945313 84.12109375 55.84765625 85.1171875 C51.11970152 93.3397635 46.11286882 100.33151101 39.5 107.1875 C38.28355741 108.57627196 37.07471974 109.97175637 35.875 111.375 C30.20192784 117.85110977 24.14440251 123.42097806 17.4296875 128.81640625 C14.5553283 131.14272096 11.74851404 133.53528994 8.9375 135.9375 C-4.34752391 146.99406829 -18.60807429 156.45486733 -33.5 165.1875 C-34.28648926 165.65478516 -35.07297852 166.12207031 -35.88330078 166.60351562 C-68.20341156 185.77635276 -102.30773177 200.19207781 -137.5 213.1875 C-139.16240723 213.80286621 -139.16240723 213.80286621 -140.85839844 214.43066406 C-155.28433443 219.75230842 -169.80486622 224.66200898 -184.5 229.1875 C-187.20712197 245.4712488 -189.3671967 261.8208009 -191.5 278.1875 C-191.83 278.1875 -192.16 278.1875 -192.5 278.1875 C-192.46519531 277.17429687 -192.43039062 276.16109375 -192.39453125 275.1171875 C-192.36637405 273.7656417 -192.33907597 272.41407781 -192.3125 271.0625 C-192.28736328 270.39734375 -192.26222656 269.7321875 -192.23632812 269.046875 C-192.14980882 263.16356224 -193.61781104 259.42652062 -197.375 254.95703125 C-203.00249066 249.77436063 -207.9829057 247.53636178 -215.5 246.1875 C-214.51 245.8575 -213.52 245.5275 -212.5 245.1875 C-212.51571045 244.63441162 -212.5314209 244.08132324 -212.54760742 243.51147461 C-213.93241945 185.55387769 -206.46757575 119.52639888 -168.5 73.1875 C-168.0153125 72.59146973 -167.530625 71.99543945 -167.03125 71.38134766 C-148.62679216 48.92095949 -126.90128193 31.3360705 -100.5 19.1875 C-99.50742187 18.72730469 -98.51484375 18.26710938 -97.4921875 17.79296875 C-76.83425765 8.72994939 -53.9428734 3.16114518 -31.5 1.1875 C-30.60748535 1.10137451 -29.7149707 1.01524902 -28.79541016 0.92651367 C-19.1945251 0.07848835 -9.63041596 -0.01386336 0 0 Z " fill="#3E271E" transform="translate(509.5,70.8125)"/>
<path d="M0 0 C0.33 0 0.66 0 1 0 C1.63160948 5.25638639 2.05830837 10.45380004 2.10546875 15.75 C2.62563114 66.14929976 25.55581413 114.83099147 60 151 C60.98033203 152.05960938 60.98033203 152.05960938 61.98046875 153.140625 C71.84838469 163.49246859 83.87571761 171.47033521 95.7734375 179.2734375 C96.46864502 179.7475708 97.16385254 180.2217041 97.88012695 180.71020508 C99.95854743 182.07149162 99.95854743 182.07149162 102.29760742 182.8269043 C104.98435318 183.91771654 106.25612202 184.65463001 108 187 C109.0580808 193.03652787 108.79335225 198.95989444 108.5625 205.0625 C108.53090869 206.7206385 108.50288017 208.37884894 108.47851562 210.03710938 C107.97600504 237.86428228 107.97600504 237.86428228 102.15234375 243.921875 C97.4076838 247.04970535 92.25765037 248.25474952 86.8125 249.75 C85.15444336 250.22373047 85.15444336 250.22373047 83.46289062 250.70703125 C75.34816356 253 75.34816356 253 73 253 C73 253.66 73 254.32 73 255 C71.15341797 255.13535156 71.15341797 255.13535156 69.26953125 255.2734375 C63.17413152 255.95638879 57.51427456 257.76959251 51.6875 259.625 C49.97759888 260.16133057 49.97759888 260.16133057 48.2331543 260.70849609 C32.9355452 265.54630212 17.78347552 270.7502237 3 277 C2.29037109 277.29535645 1.58074219 277.59071289 0.84960938 277.89501953 C-20.13047584 286.69384719 -40.0314729 297.84180512 -58.73022461 310.78393555 C-59.93304077 311.61598511 -59.93304077 311.61598511 -61.16015625 312.46484375 C-61.85761963 312.955896 -62.55508301 313.44694824 -63.27368164 313.95288086 C-65 315 -65 315 -67 315 C-67 315.66 -67 316.32 -67 317 C-70 316 -70 316 -71.28125 313.62890625 C-79.35064744 293.32609539 -81.59776469 274.4298885 -81.5 252.6875 C-81.49690826 251.54575317 -81.49381653 250.40400635 -81.4906311 249.22766113 C-81.30757471 210.72913355 -74.92238889 173.13916268 -69.02807617 135.1965332 C-66.53313403 119.13024157 -64.04277261 103.06912961 -62 86.9375 C-61.90528412 86.18990417 -61.81056824 85.44230835 -61.71298218 84.67205811 C-60.72336692 76.76932489 -59.86577607 68.85843804 -59.11328125 60.9296875 C-59.04358124 60.19547073 -58.97388123 59.46125397 -58.90206909 58.70478821 C-58.57902961 55.2644972 -58.27200083 51.82429708 -57.98632812 48.38061523 C-57.88384766 47.19927002 -57.78136719 46.0179248 -57.67578125 44.80078125 C-57.59239502 43.77122314 -57.50900879 42.74166504 -57.4230957 41.6809082 C-57.009717 39.06157091 -56.33035376 37.2744539 -55 35 C-54.01902344 35.47050781 -53.03804688 35.94101562 -52.02734375 36.42578125 C-47.92371354 38.18447991 -43.97781884 38.74718001 -39.5625 39.1875 C-38.83095703 39.26935547 -38.09941406 39.35121094 -37.34570312 39.43554688 C-35.56485534 39.63341885 -33.78255073 39.81810707 -32 40 C-32 40.66 -32 41.32 -32 42 C-25.38154729 45.04620097 -17.96084908 45.30984601 -11.03515625 43.01953125 C-6.71194291 40.95632371 -3.51954777 39.18397629 -1 35 C0.05938669 30.95560109 0.11539339 27.11744734 0.09765625 22.94921875 C0.0962413 22.29041214 0.09482635 21.63160553 0.09336853 20.95283508 C0.087805 18.86434238 0.07525947 16.77595989 0.0625 14.6875 C0.05748028 13.26497551 0.0529182 11.84244934 0.04882812 10.41992188 C0.03784757 6.94657923 0.02060835 3.47330039 0 0 Z " fill="#3E271D" transform="translate(321,405)"/>
<path d="M0 0 C0.42791748 1.81175232 0.42791748 1.81175232 0.68261719 4.22045898 C0.78348129 5.12762665 0.8843454 6.03479431 0.98826599 6.9694519 C1.09010696 7.96824371 1.19194794 8.96703552 1.296875 9.99609375 C1.41068008 11.03371857 1.52448517 12.07134338 1.64173889 13.14041138 C1.88834604 15.39018236 2.13119169 17.64036805 2.37075806 19.89089966 C3.01290914 25.89617753 3.69132277 31.89731825 4.37109375 37.8984375 C4.50807175 39.10969803 4.64504974 40.32095856 4.78617859 41.56892395 C5.96839789 51.92441641 7.31593388 62.24805287 8.8125 72.5625 C8.93038879 73.37792267 9.04827759 74.19334534 9.16973877 75.03347778 C10.9743094 87.45802074 12.90386541 99.86316487 14.83023071 112.26928711 C16.93471131 125.83907962 18.99637199 139.41493883 21 153 C21.13702332 153.92508362 21.27404663 154.85016724 21.41522217 155.80328369 C24.27658407 175.26804407 25.36203567 194.44574641 25.4375 214.125 C25.44730392 215.64412491 25.44730392 215.64412491 25.45730591 217.19393921 C25.5201653 233.28676378 24.34271535 248.86267587 19.5 264.3125 C19.30019531 265.00021484 19.10039063 265.68792969 18.89453125 266.39648438 C17.71670156 270.2938253 16.25550347 273.61018811 14 277 C12.45802548 276.02131821 10.91644929 275.04200884 9.375 274.0625 C8.35019531 273.41410156 7.32539062 272.76570313 6.26953125 272.09765625 C4.20929787 270.77585777 2.16271629 269.43229195 0.13671875 268.05859375 C-31.5974512 246.80839354 -84.57097393 217 -124 217 C-124.66 217.66 -125.32 218.32 -126 219 C-126 217.68 -126 216.36 -126 215 C-127.16015625 214.76925781 -128.3203125 214.53851562 -129.515625 214.30078125 C-152.33633948 209.6049898 -152.33633948 209.6049898 -158.1953125 203.83984375 C-162.36689789 197.27546587 -162.27968796 190.12316873 -162.1953125 182.59375 C-162.1924826 181.6284436 -162.18965271 180.66313721 -162.18673706 179.6685791 C-162.17562124 176.61225522 -162.15053285 173.55623399 -162.125 170.5 C-162.11495908 168.41667093 -162.10583518 166.33333722 -162.09765625 164.25 C-162.07571011 159.16655163 -162.04124017 154.08332697 -162 149 C-160.68 148.67 -159.36 148.34 -158 148 C-157.67 148.99 -157.34 149.98 -157 151 C-147.46352899 153.46102478 -137.92328863 151.36542206 -128.4375 149.6875 C-127.16197266 149.47416016 -125.88644531 149.26082031 -124.57226562 149.04101562 C-110.97027771 146.85902529 -110.97027771 146.85902529 -101 138 C-96.94193103 133.2756809 -92.77120106 131.27723128 -87.1875 128.875 C-72.60447898 122.26051322 -60.29817667 113.29817667 -49 102 C-48.21238281 101.21238281 -47.42476562 100.42476562 -46.61328125 99.61328125 C-21.28234355 72.8677013 -14.07211415 36.28102932 -9 1 C-2.25 -1.125 -2.25 -1.125 0 0 Z " fill="#3E271D" transform="translate(755,443)"/>
<path d="M0 0 C1.69058784 -0.00855011 1.69058784 -0.00855011 3.41532898 -0.01727295 C5.78932782 -0.02665728 8.1633393 -0.03323053 10.53735352 -0.03710938 C14.08959996 -0.04674716 17.64124976 -0.07780727 21.19335938 -0.109375 C35.98525895 -0.17794096 50.22362587 0.85423678 64.82421875 3.203125 C66.03940186 3.38601074 67.25458496 3.56889648 68.5065918 3.75732422 C92.89930909 7.60623516 116.31953426 16.10912726 137.82421875 28.203125 C138.52933594 28.59967285 139.23445313 28.9962207 139.9609375 29.40478516 C150.78386694 35.60563333 160.36485932 43.10538041 169.82421875 51.203125 C170.74976563 51.98558594 171.6753125 52.76804688 172.62890625 53.57421875 C220.11637646 94.91714409 238.94525234 156.39830637 243.3203125 217.3359375 C243.93561659 226.59822574 244.14587661 235.85971476 244.19921875 245.140625 C244.20716461 245.88321564 244.21511047 246.62580627 244.22329712 247.39089966 C244.24066937 249.48371631 244.23596969 251.57514743 244.22265625 253.66796875 C244.21927246 254.860271 244.21588867 256.05257324 244.21240234 257.28100586 C243.82421875 260.203125 243.82421875 260.203125 242.47949219 262.1184082 C239.82049174 263.86087708 237.7295226 263.05188383 234.69921875 262.453125 C233.62414062 262.25203125 232.5490625 262.0509375 231.44140625 261.84375 C228.82421875 261.203125 228.82421875 261.203125 227.82421875 260.203125 C227.68878474 257.95179647 227.62030779 255.69641027 227.578125 253.44140625 C227.54696329 252.00983973 227.51545485 250.57828073 227.48364258 249.14672852 C227.46063583 248.01402023 227.46063583 248.01402023 227.43716431 246.85842896 C226.13271915 186.27709166 215.03056611 123.67950812 171.82421875 78.203125 C170.65088152 76.83381282 169.48367909 75.45920713 168.32421875 74.078125 C152.04434421 55.54757656 129.24959416 42.8569397 106.82421875 33.203125 C105.64214844 32.69007812 104.46007812 32.17703125 103.2421875 31.6484375 C75.15542769 20.04381767 43.55930699 16.97208212 13.44921875 17.015625 C12.61106628 17.01656158 11.77291382 17.01749817 10.90936279 17.01846313 C-38.79387979 17.13854785 -90.96570666 28.40843681 -129.17578125 62.203125 C-130.13871094 63.04488281 -131.10164063 63.88664062 -132.09375 64.75390625 C-164.41298742 93.41327227 -184.01325872 130.85768841 -192.17578125 173.203125 C-192.33884766 173.99960449 -192.50191406 174.79608398 -192.66992188 175.61669922 C-198.32059949 203.60025158 -199.42485895 232.72201107 -200.17578125 261.203125 C-199.57685059 261.45126953 -198.97791992 261.69941406 -198.36083984 261.95507812 C-194.05013229 263.79491848 -190.27405316 265.47899073 -186.80078125 268.703125 C-186.17429687 269.2703125 -185.5478125 269.8375 -184.90234375 270.421875 C-181.60256181 273.82617492 -179.85337768 276.07297132 -179.55078125 280.890625 C-179.56184639 283.84532784 -179.56184639 283.84532784 -178.17578125 286.203125 C-177.99359895 287.85621715 -177.87706263 289.51659307 -177.78686523 291.17724609 C-177.72690369 292.24656876 -177.66694214 293.31589142 -177.60516357 294.4176178 C-177.54467834 295.59206955 -177.48419312 296.7665213 -177.421875 297.9765625 C-177.35647522 299.1914183 -177.29107544 300.40627411 -177.22369385 301.65794373 C-177.01328652 305.63101549 -176.81202287 309.60445791 -176.61328125 313.578125 C-176.54472986 314.93167121 -176.4761772 316.28521735 -176.40762329 317.63876343 C-175.5971574 333.7585642 -174.87436164 349.8721701 -174.86328125 366.015625 C-174.85996796 366.72265564 -174.85665466 367.42968628 -174.85324097 368.15814209 C-174.81053268 383.28134736 -174.81053268 383.28134736 -179.30078125 388.828125 C-186.08722518 394.43431781 -191.28933539 395.64730038 -200.125 395.63671875 C-203.50517498 395.15630976 -205.46693439 394.25863217 -208.17578125 392.203125 C-208.17578125 391.543125 -208.17578125 390.883125 -208.17578125 390.203125 C-208.80484375 390.22632813 -209.43390625 390.24953125 -210.08203125 390.2734375 C-220.34215986 390.48976551 -229.80323459 388.39557043 -237.96875 381.7421875 C-247.48306505 371.71424618 -248.16001905 358.6161299 -248.96533203 345.57128906 C-249.15576528 342.52347346 -249.36759013 339.47785349 -249.58851624 336.43211365 C-249.83341357 333.04379925 -250.06742187 329.65475047 -250.30078125 326.265625 C-250.3886792 324.99936279 -250.47657715 323.73310059 -250.56713867 322.4284668 C-252.65681291 289.95083004 -252.65681291 289.95083004 -243.17578125 278.203125 C-236.76534053 271.72766967 -230.70190882 268.04558683 -221.86328125 266.015625 C-221.12271484 265.83837891 -220.38214844 265.66113281 -219.61914062 265.47851562 C-217.80647783 265.04581547 -215.99136098 264.62341784 -214.17578125 264.203125 C-214.01302076 262.15910389 -214.01302076 262.15910389 -215.15698242 260.44946289 C-217.33590289 255.64518605 -216.5099713 249.82327142 -216.48828125 244.640625 C-216.48679077 243.96539795 -216.48530029 243.2901709 -216.48376465 242.59448242 C-216.25857479 185.0870412 -206.00328647 122.56407405 -168.17578125 77.203125 C-167.40234375 76.24664062 -166.62890625 75.29015625 -165.83203125 74.3046875 C-147.19484114 51.50170254 -123.8465741 31.17172757 -96.17578125 20.203125 C-94.76425781 19.63078125 -94.76425781 19.63078125 -93.32421875 19.046875 C-86.64312468 16.4082657 -79.88015913 13.98657802 -73.11328125 11.578125 C-71.90973999 11.1442749 -71.90973999 11.1442749 -70.68188477 10.70166016 C-59.88441221 6.90285249 -48.991731 4.68733287 -37.67578125 3.078125 C-36.54269531 2.90925781 -35.40960938 2.74039063 -34.2421875 2.56640625 C-22.82641971 0.90569318 -11.53507809 0.04681773 0 0 Z " fill="#394047" transform="translate(497.17578125,54.796875)"/>
<path d="M0 0 C0.66 0 1.32 0 2 0 C2.02691685 2.45840605 2.04679802 4.91651882 2.0625 7.375 C2.07087891 8.07367187 2.07925781 8.77234375 2.08789062 9.4921875 C2.11328125 14.7734375 2.11328125 14.7734375 1 17 C1.97453125 17.33257813 1.97453125 17.33257813 2.96875 17.671875 C7.07497842 19.4709957 10.71644559 21.85856438 14.5 24.25 C35.01432779 36.96412448 55.20094164 42.44207441 79.3125 42.375 C80.05234131 42.37445618 80.79218262 42.37391235 81.55444336 42.37335205 C109.97047027 42.2779194 138.07043552 36.99331746 160.328125 18.25 C162 17 162 17 164 17 C164.01981934 17.77601563 164.03963867 18.55203125 164.06005859 19.3515625 C164.15589878 22.90135587 164.26533804 26.45060781 164.375 30 C164.42140625 31.83111328 164.42140625 31.83111328 164.46875 33.69921875 C164.60100762 44.82480646 164.60100762 44.82480646 169 54.75 C177.76353825 61.32265369 189.57678012 63.22955811 200 66 C199.45521531 71.42231011 197.5406588 75.46625489 195 80.1875 C194.59918213 80.93636475 194.19836426 81.68522949 193.78540039 82.45678711 C190.19185283 88.98074955 186.06393152 94.51559764 181 100 C180.38898438 100.6909375 179.77796875 101.381875 179.1484375 102.09375 C158.5856089 124.14410237 124.45699141 136.99477076 94.78076172 138.12231445 C90.91597784 138.20729143 87.05305857 138.24659813 83.1875 138.25 C82.49847595 138.25067474 81.8094519 138.25134949 81.09954834 138.25204468 C69.84406514 138.23457584 58.98219096 137.61177395 48 135 C46.9157373 134.74259033 46.9157373 134.74259033 45.80957031 134.47998047 C35.26703354 131.87115724 25.65740874 127.92230525 16 123 C15.02417969 122.51660156 14.04835938 122.03320312 13.04296875 121.53515625 C-5.63722089 111.88773356 -20.4835289 97.53622783 -30.5 79.125 C-30.83854004 78.5067334 -31.17708008 77.8884668 -31.52587891 77.25146484 C-33.47621448 73.51542585 -34.5391228 70.1863012 -35 66 C-33.27268331 65.45780258 -31.5453027 64.91580808 -29.81762695 64.37475586 C-28.34961082 63.91462164 -26.88200247 63.45318453 -25.41479492 62.99047852 C-21.39818263 61.72859689 -17.37436876 60.54696339 -13.3125 59.4375 C-9.48925902 58.2873149 -6.79147167 56.96593865 -4 54 C0.96776493 43.43806586 -0.70872988 29.2523611 -0.4375 17.75 C-0.39419777 16.02212743 -0.35058025 14.29426273 -0.30664062 12.56640625 C-0.20079673 8.37768593 -0.09920366 4.18888263 0 0 Z " fill="#FDDAB1" transform="translate(429,592)"/>
<path d="M0 0 C1.56645264 0.25740967 1.56645264 0.25740967 3.16455078 0.52001953 C51.98095959 8.65972471 93.17030268 27.85941698 129 62 C129.77859375 62.72574219 130.5571875 63.45148438 131.359375 64.19921875 C141.01532726 73.46139991 148.76652817 84.39702188 156.22265625 95.453125 C157.90376225 98.02056609 157.90376225 98.02056609 160 100 C161.25660198 102.33916754 162.45674323 104.67973004 163.625 107.0625 C163.97546387 107.77277344 164.32592773 108.48304688 164.68701172 109.21484375 C165.79715423 111.47376828 166.89914489 113.73653687 168 116 C168.34933594 116.71269043 168.69867187 117.42538086 169.05859375 118.15966797 C185.85396775 152.51888355 194.30826398 190.03220073 198 228 C198.14465698 229.34396851 198.14465698 229.34396851 198.29223633 230.71508789 C199.37699128 242.21882367 199.1084361 253.77040397 199.0625 265.3125 C199.05747483 267.51757711 199.05291372 269.72265533 199.04882812 271.92773438 C199.03790343 277.28518078 199.02124601 282.6425851 199 288 C196.70459477 287.60444714 194.41366217 287.18286568 192.125 286.75 C190.84882812 286.51796875 189.57265625 286.2859375 188.2578125 286.046875 C185 285 185 285 183.4921875 283.015625 C183 281 183 281 184 279 C186.6829022 232.23620161 180.74758188 180.70020979 161 138 C160.46890625 136.82824219 159.9378125 135.65648437 159.390625 134.44921875 C146.26972109 106.86408029 125.95803282 81.72637986 101.68701172 63.28564453 C100.21003574 62.16006486 98.74643013 61.01698478 97.28515625 59.87109375 C89.08185812 53.61434094 80.11687438 48.7745742 71 44 C70.32759277 43.64405762 69.65518555 43.28811523 68.96240234 42.92138672 C47.02608098 31.46178655 23.3733611 25.48739716 -1 22 C-2.14315674 21.81526123 -3.28631348 21.63052246 -4.46411133 21.44018555 C-17.37134117 19.53511871 -30.2887185 19.648824 -43.3125 19.6875 C-44.51254669 19.68865814 -45.71259338 19.68981628 -46.94900513 19.69100952 C-64.14504955 19.72390893 -81.01779594 20.06531096 -98 23 C-98.74975098 23.1227832 -99.49950195 23.24556641 -100.27197266 23.37207031 C-104.55862959 24.08799231 -108.77620496 24.9802909 -113 26 C-114.14082031 26.26296875 -115.28164063 26.5259375 -116.45703125 26.796875 C-131.71947091 30.56701177 -146.89649841 36.05673768 -161 43 C-162.04414063 43.474375 -163.08828125 43.94875 -164.1640625 44.4375 C-195.4516868 59.12785182 -220.31772519 85.50335835 -239 114 C-239.41314453 114.6295459 -239.82628906 115.2590918 -240.25195312 115.90771484 C-246.4496373 125.47381518 -251.07485495 135.31048393 -255 146 C-255.29116699 146.78584473 -255.58233398 147.57168945 -255.88232422 148.38134766 C-261.2056945 162.95744991 -264.84647196 177.82030571 -268 193 C-268.16483887 193.77279297 -268.32967773 194.54558594 -268.49951172 195.34179688 C-273.32007376 218.44145298 -280.59071631 257.22785108 -273 280 C-272.34 280.66 -271.68 281.32 -271 282 C-273.9430108 284.48657163 -276.21710094 285.51280611 -280 286.1875 C-281.2684375 286.42533203 -281.2684375 286.42533203 -282.5625 286.66796875 C-285 287 -285 287 -289 287 C-289.47170636 240.39541161 -287.56584119 193.45175694 -272 149 C-271.57098389 147.74243896 -271.57098389 147.74243896 -271.13330078 146.45947266 C-267.14651266 134.80912291 -262.77518044 123.6236638 -256.94384766 112.77001953 C-256.03553797 111.06664519 -255.16344107 109.34411104 -254.29296875 107.62109375 C-229.65784079 59.67778852 -182.00027597 25.28536938 -131.640625 8.75 C-117.34834546 4.23047012 -102.84493789 1.03205561 -88 -1 C-87.29085449 -1.10441406 -86.58170898 -1.20882812 -85.85107422 -1.31640625 C-58.03178123 -5.27716164 -27.64213798 -4.76588586 0 0 Z " fill="#3D261D" transform="translate(556,36)"/>
<path d="M0 0 C9.34811974 -0.69245331 16.1483791 2.11054486 23.3125 8.125 C29.24773431 13.7709383 33.55372682 20.89011452 34.16113281 29.20605469 C34.41692472 44.22639337 33.73772529 59.0908529 32.625 74.0625 C32.56187622 74.93507446 32.49875244 75.80764893 32.43371582 76.70666504 C32.24817106 79.2335683 32.05201691 81.75939593 31.8515625 84.28515625 C31.79624359 85.03122635 31.74092468 85.77729645 31.68392944 86.54597473 C30.73915578 97.85807849 28.13431884 107.68081028 20 116 C14.83784271 120.10752301 10.56393925 121.6483604 4 122 C4.06380859 123.62615234 4.06380859 123.62615234 4.12890625 125.28515625 C4.12043401 130.80542272 3.04722031 136.04688679 1.9375 141.4375 C1.71489502 142.52426025 1.49229004 143.61102051 1.26293945 144.73071289 C-6.97218397 183.7668264 -21.66099304 218.07417547 -56.1796875 240.83447266 C-76.74151655 254 -76.74151655 254 -85 254 C-85.99 249.38 -86.98 244.76 -88 240 C-86.5459375 239.30777344 -86.5459375 239.30777344 -85.0625 238.6015625 C-69.27792605 230.9747045 -55.32497564 222.57964204 -43 210 C-42.21753906 209.20464844 -41.43507813 208.40929687 -40.62890625 207.58984375 C-16.52924861 181.75901978 -8.30438279 137.33216021 -6.3515625 103.23193359 C-6.29450134 102.27643616 -6.23744019 101.32093872 -6.1786499 100.33648682 C-5.99141826 97.19062287 -5.80823675 94.04453644 -5.625 90.8984375 C-5.49458897 88.69754369 -5.36388776 86.49666705 -5.23291016 84.29580688 C-4.88887723 78.50431523 -4.54812014 72.71263582 -4.20825195 66.92089844 C-3.6651438 57.67341567 -3.11747366 48.42620286 -2.56903076 39.17903519 C-2.37899912 35.96605317 -2.1906067 32.75297826 -2.00244141 29.53988647 C-1.42224694 19.68534246 -0.82231567 9.83789372 0 0 Z " fill="#474F56" transform="translate(742,322)"/>
<path d="M0 0 C0.66 0.99 1.32 1.98 2 3 C2.99 3.66 3.98 4.32 5 5 C4.34 5 3.68 5 3 5 C3.02100517 6.01467598 3.02100517 6.01467598 3.04243469 7.04985046 C3.1641291 18.25434376 2.45299691 29.40161159 1.79296875 40.58203125 C1.66559626 42.76714358 1.53826238 44.95225817 1.41096497 47.13737488 C1.14397807 51.70056441 0.87358779 56.26353882 0.60131836 60.82641602 C0.25559379 66.63184742 -0.07713116 72.43794526 -0.40669727 78.24431324 C-0.66487722 82.75328814 -0.93235332 87.26167848 -1.20227623 91.76996422 C-1.32879719 93.90846935 -1.4520067 96.04717339 -1.57163429 98.18607521 C-2.25590017 110.35230736 -3.34618498 122.08898905 -6 134 C-6.66 133.01 -7.32 132.02 -8 131 C-8.79664063 131.48146484 -8.79664063 131.48146484 -9.609375 131.97265625 C-14.95004291 134.2677472 -21.98678037 134.09040581 -27.41796875 132.125 C-31.70839481 129.60219628 -34.82061568 126.25376361 -37.87109375 122.35546875 C-38.24363281 121.90816406 -38.61617187 121.46085937 -39 121 C-39.33 121 -39.66 121 -40 121 C-40.10902904 109.19858016 -39.83173521 97.49023936 -39.125 85.7109375 C-39.03487047 84.144852 -38.94519909 82.57874008 -38.85595703 81.01260376 C-38.62374834 76.95850802 -38.38546438 72.90479329 -38.14575195 68.85113525 C-37.90066536 64.68743426 -37.66154881 60.52339045 -37.421875 56.359375 C-36.95363852 48.23924351 -36.4789599 40.11950602 -36 32 C-35.67 32 -35.34 32 -35 32 C-34.93941406 31.28714844 -34.87882813 30.57429688 -34.81640625 29.83984375 C-34.64261575 27.85328466 -34.45852068 25.86760755 -34.265625 23.8828125 C-34.06420069 21.69676628 -33.92398172 19.50497387 -33.8125 17.3125 C-32.3740048 11.44786572 -28.78557126 7.46813637 -24.1875 3.6875 C-16.20434799 -0.53887459 -9.02050968 -2.22346416 0 0 Z " fill="#2F343B" transform="translate(739,317)"/>
<path d="M0 0 C2.48046875 0.078125 2.48046875 0.078125 5 1 C6.30078125 3.109375 6.30078125 3.109375 7.3125 5.75 C9.87700901 11.24761718 12.29280705 13.86524844 18 16 C29.98258373 19.20165992 42.14052783 20.14428331 54.50390625 20.203125 C55.46666977 20.20882507 56.42943329 20.21452515 57.42137146 20.22039795 C59.44569832 20.22977282 61.47003992 20.23635167 63.49438477 20.24023438 C66.53104473 20.24989988 69.56701483 20.28098008 72.60351562 20.3125 C97.40866756 20.89649206 97.40866756 20.89649206 119.6015625 11.65625 C122.72597251 8.22122612 124.37547347 4.27506981 126 0 C130.875 0.875 130.875 0.875 132 2 C132.43209394 16.44428308 124.42965799 30.3120355 114.93847656 40.63232422 C101.94464768 54.09535121 83.85782406 61.92308681 65.125 62.3125 C46.28269078 62.14608117 30.21357408 54.74556181 16.66015625 41.7578125 C7.41307716 32.11555909 -1.29201743 18.41745784 -2.21875 4.78125 C-2 2 -2 2 0 0 Z " fill="#38302A" transform="translate(446,484)"/>
<path d="M0 0 C0.01720093 0.57865311 0.03440186 1.15730621 0.05212402 1.75349426 C0.7212835 23.39626457 1.93024151 45.00537743 3.15673828 66.62231445 C3.44616769 71.72447379 3.7307045 76.82689307 4.01392365 81.92940044 C4.23500511 85.9024213 4.4586887 89.87529241 4.68315125 93.84812355 C4.78921314 95.73103079 4.89446375 97.61398392 4.99885559 99.49698448 C5.14436659 102.11492845 5.29341165 104.73264869 5.44335938 107.3503418 C5.48494675 108.11137711 5.52653412 108.87241241 5.56938171 109.6565094 C5.85003375 114.47325334 6.35689631 119.21774947 7 124 C-3.54587341 124.36172444 -13.40139321 122.37664257 -21.79296875 115.5390625 C-31.3072838 105.51112118 -31.9842378 92.4130049 -32.78955078 79.36816406 C-32.97998403 76.32034846 -33.19180888 73.27472849 -33.41273499 70.22898865 C-33.65763232 66.84067425 -33.89164062 63.45162547 -34.125 60.0625 C-34.21289795 58.79623779 -34.3007959 57.52997559 -34.39135742 56.2253418 C-36.48103166 23.74770504 -36.48103166 23.74770504 -27 12 C-19.01288773 3.93188253 -11.57619931 -0.17958304 0 0 Z " fill="#474F56" transform="translate(281,321)"/>
<path d="M0 0 C1.98 0.495 1.98 0.495 4 1 C4.72139882 15.7635108 4.72139882 15.7635108 0.9765625 20.62890625 C-1.90938726 22.7235472 -4.83249104 24.36332771 -8 26 C-9.05960938 26.67160156 -10.11921875 27.34320312 -11.2109375 28.03515625 C-39.07237436 45.40796362 -79.58418174 49.04805656 -111.38671875 42.046875 C-118.10864087 40.09933432 -124.56472592 37.74590469 -131 35 C-132.33417969 34.43152344 -132.33417969 34.43152344 -133.6953125 33.8515625 C-140.46871116 30.6995849 -146.53327451 26.41626052 -152.6796875 22.20703125 C-156.0264012 19.88456072 -156.0264012 19.88456072 -160 18 C-159.67 12.39 -159.34 6.78 -159 1 C-152.45391304 2.09101449 -152.45391304 2.09101449 -148.9375 4.625 C-117.79811776 24.05784756 -70.07222242 22.49276341 -35.8125 14.8984375 C-25.0603104 12.32092316 -13.73015501 9.05317459 -4.2109375 3.3203125 C-2 2 -2 2 0 2 C0 1.34 0 0.68 0 0 Z " fill="#E1BE9C" transform="translate(590,591)"/>
<path d="M0 0 C5.99823116 6.41671241 8.6875 12.00681252 8.6875 20.875 C9.3475 21.205 10.0075 21.535 10.6875 21.875 C10.15125 22.390625 9.615 22.90625 9.0625 23.4375 C6.78095128 25.68390853 6.78095128 25.68390853 5.3671875 27.59375 C4.89539063 28.2021875 4.42359375 28.810625 3.9375 29.4375 C3.50953125 30.01628906 3.0815625 30.59507812 2.640625 31.19140625 C-3.78184811 36.72757807 -13.72320142 37.21996825 -21.75 38.5625 C-23.02166016 38.78744141 -24.29332031 39.01238281 -25.60351562 39.24414062 C-44.02855334 42.38661725 -44.02855334 42.38661725 -50.3125 38.875 C-55.70849994 34.50820986 -58.36790482 25.81664408 -59.9453125 19.234375 C-60.31410711 14.64849414 -59.13226581 12.11642503 -56.25 8.5625 C-49.80756448 1.59415138 -43.01955704 0.09589753 -33.9375 -0.875 C-32.88054932 -0.99423828 -31.82359863 -1.11347656 -30.73461914 -1.23632812 C-5.93653229 -3.86622901 -5.93653229 -3.86622901 0 0 Z " fill="#2E333A" transform="translate(648.3125,555.125)"/>
<path d="M0 0 C1.43279297 0.58587891 1.43279297 0.58587891 2.89453125 1.18359375 C4.8323045 2.01629149 6.76980684 2.84961995 8.70703125 3.68359375 C12.75072814 5.30011315 16.85765579 6.66079796 21 8 C21.08857863 11.2914911 21.1409104 14.58266805 21.1875 17.875 C21.21263672 18.7928125 21.23777344 19.710625 21.26367188 20.65625 C21.37283048 30.98993144 19.08586856 39.3236424 12 47 C7.49432305 51.47820331 2.82638771 55.41049435 -3 58 C-11.24760974 57.48311983 -18.00873581 51.46092827 -23.4375 45.5625 C-28.43981318 39.2590071 -31.14419152 31.80094066 -31.09765625 23.796875 C-31.09443359 22.8171875 -31.09121094 21.8375 -31.08789062 20.828125 C-31.07951172 19.81234375 -31.07113281 18.7965625 -31.0625 17.75 C-31.05798828 16.71875 -31.05347656 15.6875 -31.04882812 14.625 C-31.03706088 12.08327427 -31.02062011 9.54166681 -31 7 C-30.11699219 6.76925781 -29.23398437 6.53851562 -28.32421875 6.30078125 C-21.26738865 4.38308199 -14.96142392 2.29140371 -8.5 -1.2421875 C-5.03813296 -2.29156595 -3.29285098 -1.38712929 0 0 Z " fill="#F7F7F7" transform="translate(330,809)"/>
<path d="M0 0 C0.26412279 6.7311292 -0.70702555 12.85310354 -2.0625 19.4375 C-2.28510498 20.52426025 -2.50770996 21.61102051 -2.73706055 22.73071289 C-10.97218397 61.7668264 -25.66099304 96.07417547 -60.1796875 118.83447266 C-80.74151655 132 -80.74151655 132 -89 132 C-90.485 125.07 -90.485 125.07 -92 118 C-90.5459375 117.30777344 -90.5459375 117.30777344 -89.0625 116.6015625 C-73.27792605 108.9747045 -59.32497564 100.57964204 -47 88 C-46.21753906 87.20464844 -45.43507813 86.40929687 -44.62890625 85.58984375 C-26.02953504 65.65441185 -19.81037144 37.68170404 -14.91552734 11.73950195 C-14.67914551 10.49128662 -14.44276367 9.24307129 -14.19921875 7.95703125 C-13.99127686 6.83272705 -13.78333496 5.70842285 -13.5690918 4.55004883 C-13 2 -13 2 -12 1 C-10.36016917 0.76573845 -8.71225385 0.58661692 -7.0625 0.4375 C-6.16660156 0.35371094 -5.27070312 0.26992188 -4.34765625 0.18359375 C-2 0 -2 0 0 0 Z " fill="#3C434B" transform="translate(746,444)"/>
<path d="M0 0 C1 3 1 3 0.3984375 4.8671875 C-3.15802456 11.8443688 -6.29774146 15.6563664 -13.9375 18.1875 C-27.2867196 22.23532788 -40.90314189 22.31887432 -54.72070312 22.26074219 C-57.73067602 22.25006852 -60.7400457 22.26066681 -63.75 22.2734375 C-104.18853128 22.30289169 -104.18853128 22.30289169 -115 13 C-118.16058414 8.93399653 -120 6.24454489 -120 1 C-118.98348106 1.08842415 -118.98348106 1.08842415 -117.94642639 1.17863464 C-99.80429853 2.71522135 -81.7983895 3.34883969 -63.59985352 3.31567383 C-60.82299658 3.31102971 -58.04657648 3.31804271 -55.26977539 3.33618164 C-36.63974517 3.45682377 -18.47478615 2.54418234 0 0 Z " fill="#FBFBFB" transform="translate(571,483)"/>
<path d="M0 0 C1.35019449 0.97711443 2.69121806 1.96807578 4 3 C3.87890625 4.78125 3.87890625 4.78125 3 7 C-10.98212693 16.58774418 -29.51325846 20.37866589 -46.07421875 17.3046875 C-55.85168277 15.2183654 -64.65080911 11.56612726 -73 6 C-70.28863664 -0.55604791 -63.8778272 -3.61974715 -57.7421875 -6.5625 C-38.11069207 -14.15622131 -17.63840143 -10.7790231 0 0 Z " fill="#F34348" transform="translate(545,528)"/>
<path d="M0 0 C1.01497559 0.00491455 2.02995117 0.0098291 3.07568359 0.01489258 C19.22028557 0.26470986 37.07767112 3.45267112 48.9375 15.3125 C48.97813832 16.97867115 48.980221 18.64638095 48.9375 20.3125 C43.98944235 21.88236568 39.93783815 20.64632769 35.0625 19.4375 C11.86818447 13.86009411 -17.30802081 13.01172408 -38.5 25.78125 C-39.81548516 26.65179165 -41.11323625 27.55068687 -42.37890625 28.4921875 C-44.0625 29.3125 -44.0625 29.3125 -46.27734375 28.9453125 C-46.86644531 28.73648437 -47.45554687 28.52765625 -48.0625 28.3125 C-48.75 26.5546875 -48.75 26.5546875 -49.0625 24.3125 C-47.18651633 21.26402653 -44.5794079 18.84418426 -42.0625 16.3125 C-41.57910156 15.79429687 -41.09570312 15.27609375 -40.59765625 14.7421875 C-36.65463729 10.91421684 -31.98116255 8.53096111 -27.125 6.0625 C-26.45670166 5.72089844 -25.78840332 5.37929688 -25.09985352 5.02734375 C-16.75254414 0.93969658 -9.25897567 -0.05300061 0 0 Z " fill="#49372C" transform="translate(410.0625,297.6875)"/>
<path d="M0 0 C1.13453613 0.00572021 2.26907227 0.01144043 3.43798828 0.01733398 C21.68368933 0.40313586 36.43760601 7.14185225 49.38671875 20.0703125 C51.36736599 22.65304328 52.01021226 24.27680659 52.25 27.5 C51.755 27.995 51.755 27.995 51.25 28.5 C46.08716257 28.1276193 42.7427701 26.89273692 38.375 24.1875 C16.73207063 12.31564484 -9.90895882 15.01153443 -33.42333984 19.13623047 C-37.51200045 19.77548591 -41.62895734 20.13706266 -45.75 20.5 C-46.08 18.85 -46.41 17.2 -46.75 15.5 C-35.14517748 3.61213303 -16.01548901 -0.09468819 0 0 Z " fill="#4A372D" transform="translate(609.75,297.5)"/>
<path d="M0 0 C0.84949219 0.44730469 1.69898438 0.89460938 2.57421875 1.35546875 C10.95200792 6.02649321 17.87832007 12.18367119 22 21 C22.375 23.9375 22.375 23.9375 22 26 C21 27 21 27 18.76953125 27.296875 C15.13848551 26.90765148 13.53301559 25.50664623 10.6875 23.25 C-2.90222218 12.93929926 -16.28891904 11.72239442 -33 13 C-41.33298735 14.52771435 -50.66934257 18.50436514 -56.640625 24.703125 C-57.08921875 25.13109375 -57.5378125 25.5590625 -58 26 C-60.1875 25.6875 -60.1875 25.6875 -62 25 C-60.98830754 16.40061412 -54.21126544 10.44095151 -48 5 C-34.52144361 -4.89998895 -15.09966799 -8.54149345 0 0 Z " fill="#362B24" transform="translate(628,362)"/>
<path d="M0 0 C9.59985603 5.11043549 18.50659995 11.84100858 23 22 C22.75 24.4375 22.75 24.4375 22 26 C18.76484879 25.40535514 17.0337414 24.38550482 14.5625 22.25 C1.96465602 12.38565046 -13.73655475 11.82319591 -29 13 C-37.9789916 14.46716886 -45.11489379 19.85432992 -52.125 25.3046875 C-55 27 -55 27 -57.875 26.7578125 C-58.57625 26.50773437 -59.2775 26.25765625 -60 26 C-59.82896668 17.96143375 -55.27874939 13.43282595 -49.921875 7.82421875 C-36.39738478 -5.0921559 -16.87227318 -8.05591635 0 0 Z " fill="#352A24" transform="translate(433,362)"/>
<path d="M0 0 C5.94 0 11.88 0 18 0 C23 6 23 6 23.4375 9.5 C23 13 23 13 21.8125 16.125 C21.544375 17.07375 21.27625 18.0225 21 19 C21.474375 19.763125 21.94875 20.52625 22.4375 21.3125 C24.45585903 24.78407753 24.2301647 26.94832785 23.65234375 30.84375 C22.64217712 34.1827439 20.69676002 35.89521169 18 38 C12.6251615 40.68741925 6.00925213 39 0 39 C0 26.13 0 13.26 0 0 Z " fill="#F8F8F7" transform="translate(430,818)"/>
<path d="M0 0 C17 0 17 0 23 5 C24.59897845 8.1979569 24.36788455 11.52123202 24 15 C22.6875 18.4375 22.6875 18.4375 21 21 C20.01 21.33 19.02 21.66 18 22 C18.433125 22.97582031 18.86625 23.95164062 19.3125 24.95703125 C19.8752871 26.2420618 20.43777134 27.52722502 21 28.8125 C21.28617187 29.45509766 21.57234375 30.09769531 21.8671875 30.75976562 C23.13711041 33.67756469 24 35.78265714 24 39 C21.69 39 19.38 39 17 39 C15.99515796 37.04414675 14.99626195 35.08523763 14 33.125 C13.443125 32.03445313 12.88625 30.94390625 12.3125 29.8203125 C11 27 11 27 11 25 C9.68 25 8.36 25 7 25 C7 29.62 7 34.24 7 39 C4.69 39 2.38 39 0 39 C0 26.13 0 13.26 0 0 Z " fill="#F7F7F7" transform="translate(483,818)"/>
<path d="M0 0 C17 0 17 0 23 5 C24.60677052 9.82031156 24.53245282 13.63083561 22.6875 18.375 C21 21 21 21 18 22 C18.433125 23.05960938 18.86625 24.11921875 19.3125 25.2109375 C19.87518135 26.59888483 20.43767145 27.9869097 21 29.375 C21.28617188 30.07367187 21.57234375 30.77234375 21.8671875 31.4921875 C24 36.7734375 24 36.7734375 24 39 C21.69 39 19.38 39 17 39 C15.99515796 37.04414675 14.99626195 35.08523763 14 33.125 C13.443125 32.03445313 12.88625 30.94390625 12.3125 29.8203125 C11 27 11 27 11 25 C9.68 25 8.36 25 7 25 C7 29.62 7 34.24 7 39 C4.69 39 2.38 39 0 39 C0 26.13 0 13.26 0 0 Z " fill="#F6F6F5" transform="translate(624,818)"/>
<path d="M0 0 C-0.24856188 6.95973255 -2.08531865 11.03401717 -7 16 C-14.10089345 21.82505234 -21.1578927 24.53681416 -30.3828125 24.3125 C-38.02852943 23.39957858 -44.95868841 19.82181923 -50 14 C-53.01308106 9.60273703 -55 6.40628809 -55 1 C-54.43152344 1.28746094 -53.86304688 1.57492187 -53.27734375 1.87109375 C-51.05426115 2.97310211 -48.82023299 4.033412 -46.5625 5.0625 C-45.45068359 5.57490234 -45.45068359 5.57490234 -44.31640625 6.09765625 C-34.7011787 9.84321706 -20.6726256 9.45655203 -11.05078125 6 C-7.50049001 4.26881037 -3.81603629 0 0 0 Z " fill="#DBB695" transform="translate(539,436)"/>
<path d="M0 0 C2.64 0 5.28 0 8 0 C8.33 10.23 8.66 20.46 9 31 C11.64 31 14.28 31 17 31 C19.09534185 27.54452397 19.30071628 24.70802469 19.4140625 20.703125 C19.45273437 19.49785156 19.49140625 18.29257812 19.53125 17.05078125 C19.57765625 15.16939453 19.57765625 15.16939453 19.625 13.25 C19.66367187 11.98027344 19.70234375 10.71054687 19.7421875 9.40234375 C19.83644222 6.2683743 19.92205166 3.13441051 20 0 C22.31 0 24.62 0 27 0 C27.09938095 4.16253275 27.17170617 8.32442479 27.21972656 12.48779297 C27.23975843 13.90197795 27.26699248 15.31608097 27.30175781 16.72998047 C27.35065489 18.77071419 27.37305123 20.8103469 27.390625 22.8515625 C27.41157227 24.07697754 27.43251953 25.30239258 27.45410156 26.56494141 C26.80937895 31.44195597 24.58197734 34.47613611 21.0859375 37.84375 C16.995224 40.1112616 12.5132086 39.69886153 8 39 C4.60716493 37.37384828 2.57454012 35.13320965 0.85986328 31.7512207 C-0.17719832 28.43303582 -0.22593299 25.64339398 -0.1953125 22.16796875 C-0.18886719 20.87568359 -0.18242188 19.58339844 -0.17578125 18.25195312 C-0.15907327 16.8971327 -0.14214342 15.54231499 -0.125 14.1875 C-0.11496003 12.81315749 -0.10583596 11.43880797 -0.09765625 10.06445312 C-0.07411242 6.70945683 -0.04122567 3.35481801 0 0 Z " fill="#E6E7E7" transform="translate(592,818)"/>
<path d="M0 0 C3.57236775 1.46142317 4.77537905 2.63595915 6.8125 5.9375 C8 9 8 9 8 13 C5.69 13 3.38 13 1 13 C0.34 11.35 -0.32 9.7 -1 8 C-2.65 8 -4.3 8 -6 8 C-6.49202592 10.32708302 -6.49202592 10.32708302 -6 13 C-3.42248091 15.22513769 -3.42248091 15.22513769 -0.125 17.0625 C6.75953535 21.17206306 6.75953535 21.17206306 8 25 C8.48239025 30.20981469 7.86802365 33.59553511 5 38 C0.8760471 40.56757835 -3.27233678 40.85114792 -8 40 C-10.75569447 37.81840855 -12.43588747 36.12822506 -14 33 C-14.039992 31.00039988 -14.04346799 28.99952758 -14 27 C-11.69 27 -9.38 27 -7 27 C-6.67 28.98 -6.34 30.96 -6 33 C-4.02 32.34 -2.04 31.68 0 31 C-0.16635316 28.57455689 -0.16635316 28.57455689 -1 26 C-2.91786295 24.50127441 -2.91786295 24.50127441 -5.3125 23.5 C-9.23231401 21.47143383 -11.92470592 20.06035798 -14 16 C-14.59400738 12.5444763 -14.67360274 9.44726108 -14 6 C-9.77546995 0.55257968 -6.76988121 -0.458975 0 0 Z " fill="#F3F4F4" transform="translate(526,817)"/>
<path d="M0 0 C2.88870174 2.3421906 4.54642262 4.60448633 6.3125 7.875 C6.5625 10.75 6.5625 10.75 6.3125 12.875 C3.5625 13.25 3.5625 13.25 0.3125 12.875 C-1.04926581 10.89424973 -2.38343116 8.89420337 -3.6875 6.875 C-6.27486705 6.12414894 -6.27486705 6.12414894 -8.6875 6.875 C-10.76227826 9.98716739 -10.94272588 10.71560508 -10.953125 14.25390625 C-10.95570313 15.09244141 -10.95828125 15.93097656 -10.9609375 16.79492188 C-10.95320313 17.66697266 -10.94546875 18.53902344 -10.9375 19.4375 C-10.94523437 20.31341797 -10.95296875 21.18933594 -10.9609375 22.09179688 C-10.95835937 22.92904297 -10.95578125 23.76628906 -10.953125 24.62890625 C-10.95086914 25.39533447 -10.94861328 26.1617627 -10.94628906 26.95141602 C-10.85338484 29.11345654 -10.85338484 29.11345654 -8.6875 30.875 C-5.72980823 31.37510524 -5.72980823 31.37510524 -2.6875 30.875 C-2.213125 30.215 -1.73875 29.555 -1.25 28.875 C-0.734375 28.215 -0.21875 27.555 0.3125 26.875 C4 26.625 4 26.625 7.3125 26.875 C6.36862715 31.68875154 5.36092173 34.91527203 1.22265625 37.99609375 C-2.63045308 39.76899681 -6.57097367 39.50142792 -10.6875 38.875 C-14.99261069 37.13463611 -16.60072468 34.94632192 -18.6875 30.875 C-19.30938711 26.91263907 -19.19710185 22.94387178 -19.1875 18.9375 C-19.21585937 17.86564453 -19.24421875 16.79378906 -19.2734375 15.68945312 C-19.2952145 6.89698996 -19.2952145 6.89698996 -16.2734375 3.20703125 C-11.26313802 -1.3113204 -6.5788055 -2.75391858 0 0 Z " fill="#F7F7F7" transform="translate(389.6875,818.125)"/>
<path d="M0 0 C2.83849602 2.33387451 4.34283061 3.96491972 5.8125 7.3125 C6 10.125 6 10.125 5.8125 12.3125 C3.0625 12.6875 3.0625 12.6875 -0.1875 12.3125 C-1.54926581 10.33174973 -2.88343116 8.33170337 -4.1875 6.3125 C-6.73162036 5.47893587 -6.73162036 5.47893587 -9.1875 6.3125 C-11.89789456 8.86117651 -12.18646524 10.30067415 -12.515625 14.0625 C-12.50505137 15.47936655 -12.4785525 16.89618884 -12.4375 18.3125 C-12.43234375 19.0240625 -12.4271875 19.735625 -12.421875 20.46875 C-12.37104409 23.87442078 -12.23881677 27.05680936 -11.1875 30.3125 C-7.16651932 30.59073059 -7.16651932 30.59073059 -3.1875 30.3125 C-1.55073743 28.3524719 -1.55073743 28.3524719 -0.1875 26.3125 C3 26.0625 3 26.0625 5.8125 26.3125 C5.53248862 30.32599645 5.05486211 32.03285142 2.375 35.125 C-1.49425357 38.42802134 -3.90902757 38.66565068 -8.8671875 38.5859375 C-12.55272622 38.15161475 -14.49539469 36.81231208 -17.1875 34.3125 C-20.09744419 28.83903354 -20.65471115 24.39228709 -20.5625 18.25 C-20.57990234 17.08500977 -20.57990234 17.08500977 -20.59765625 15.89648438 C-20.56693864 9.85023513 -19.20663478 5.72243506 -15.25 1 C-10.67438978 -2.74368109 -5.13184137 -2.7168572 0 0 Z " fill="#F7F7F6" transform="translate(582.1875,818.6875)"/>
<path d="M0 0 C6.6 0 13.2 0 20 0 C20 1.98 20 3.96 20 6 C14.06 6.495 14.06 6.495 8 7 C8 9.31 8 11.62 8 14 C11.3 14.33 14.6 14.66 18 15 C18 16.98 18 18.96 18 21 C13.05 21.495 13.05 21.495 8 22 C7.67 25.3 7.34 28.6 7 32 C11.29 32 15.58 32 20 32 C20 34.31 20 36.62 20 39 C13.4 39 6.8 39 0 39 C0 26.13 0 13.26 0 0 Z " fill="#F4F4F4" transform="translate(538,818)"/>
<path d="M0 0 C6.6 0 13.2 0 20 0 C20 1.98 20 3.96 20 6 C14.06 6.495 14.06 6.495 8 7 C7.67 9.64 7.34 12.28 7 15 C10.63 15 14.26 15 18 15 C18 16.98 18 18.96 18 21 C13.05 21.495 13.05 21.495 8 22 C7.67 25.3 7.34 28.6 7 32 C11.29 32 15.58 32 20 32 C20 34.31 20 36.62 20 39 C13.4 39 6.8 39 0 39 C0 26.13 0 13.26 0 0 Z " fill="#F7F7F7" transform="translate(458,818)"/>
<path d="M0 0 C0.33 0 0.66 0 1 0 C1 13.2 1 26.4 1 40 C7.6 40 14.2 40 21 40 C21 37.69 21 35.38 21 33 C16.71 33 12.42 33 8 33 C7.90234375 25.28515625 7.90234375 25.28515625 8 23 C9 22 9 22 11.28515625 21.90234375 C12.65994141 21.91974609 12.65994141 21.91974609 14.0625 21.9375 C14.98160156 21.94652344 15.90070313 21.95554687 16.84765625 21.96484375 C17.55792969 21.97644531 18.26820313 21.98804688 19 22 C19 20.02 19 18.04 19 16 C15.37 16 11.74 16 8 16 C7.90234375 9.84765625 7.90234375 9.84765625 8 8 C9 7 9 7 12.16015625 6.90234375 C14.09181641 6.91974609 14.09181641 6.91974609 16.0625 6.9375 C17.35285156 6.94652344 18.64320313 6.95554687 19.97265625 6.96484375 C20.97167969 6.97644531 21.97070312 6.98804688 23 7 C23.02465288 11.68139254 23.04283739 16.36274759 23.05493164 21.04418945 C23.05997157 22.63794614 23.0668035 24.23169819 23.07543945 25.82543945 C23.08751999 28.11150253 23.09323155 30.39750467 23.09765625 32.68359375 C23.10281754 33.40026718 23.10797882 34.11694061 23.11329651 34.85533142 C23.11349263 36.57063672 23.06192007 38.28581266 23 40 C22 41 22 41 19.86694336 41.11352539 C18.49227905 41.10567017 18.49227905 41.10567017 17.08984375 41.09765625 C16.10048828 41.09443359 15.11113281 41.09121094 14.09179688 41.08789062 C13.05087891 41.07951172 12.00996094 41.07113281 10.9375 41.0625 C9.89271484 41.05798828 8.84792969 41.05347656 7.77148438 41.04882812 C5.1809334 41.03699913 2.59049441 41.02051689 0 41 C-0.268125 40.030625 -0.53625 39.06125 -0.8125 38.0625 C-1.204375 37.051875 -1.59625 36.04125 -2 35 C-2.99 34.67 -3.98 34.34 -5 34 C-4.85831863 32.56208484 -4.71148957 31.1246763 -4.5625 29.6875 C-4.48128906 28.88699219 -4.40007812 28.08648438 -4.31640625 27.26171875 C-4 25 -4 25 -3 22 C-2.67 22.66 -2.34 23.32 -2 24 C-1.97494385 23.30849854 -1.9498877 22.61699707 -1.92407227 21.90454102 C-1.80847839 18.79032134 -1.68558758 15.67643211 -1.5625 12.5625 C-1.52318359 11.47388672 -1.48386719 10.38527344 -1.44335938 9.26367188 C-1.40146484 8.22919922 -1.35957031 7.19472656 -1.31640625 6.12890625 C-1.27974854 5.17056885 -1.24309082 4.21223145 -1.20532227 3.22485352 C-1 1 -1 1 0 0 Z " fill="#222830" transform="translate(457,817)"/>
<path d="M0 0 C2.31 0 4.62 0 7 0 C11.22323462 9.41002278 11.22323462 9.41002278 13 14 C16.12283677 7.05216076 16.12283677 7.05216076 19 0 C21.64 0 24.28 0 27 0 C26.45882703 4.21100213 24.87504493 7.62745455 23.1171875 11.4362793 C18.81338519 20.831096 16.75210691 28.63497032 17 39 C14.69 39 12.38 39 10 39 C10.03222656 38.16082031 10.06445312 37.32164062 10.09765625 36.45703125 C9.98429183 24.70491931 5.86815336 15.51753598 0.81030273 5.03027344 C0 3 0 3 0 0 Z " fill="#F5F5F5" transform="translate(693,818)"/>
<path d="M0 0 C2.31 0 4.62 0 7 0 C7.62620916 1.39529129 8.25090631 2.79126121 8.875 4.1875 C9.39707031 5.35345703 9.39707031 5.35345703 9.9296875 6.54296875 C11.00323199 9.00741942 12.00165552 11.50413879 13 14 C14.98 9.38 16.96 4.76 19 0 C21.64 0 24.28 0 27 0 C26.06460476 2.52163182 25.12674545 5.04230241 24.1875 7.5625 C23.79594727 8.61920898 23.79594727 8.61920898 23.39648438 9.69726562 C23.13544922 10.39658203 22.87441406 11.09589844 22.60546875 11.81640625 C22.34209717 12.52224854 22.07872559 13.22809082 21.80737305 13.95532227 C21.06458587 15.83643584 20.20883333 17.67189937 19.34375 19.5 C17.77072057 23.59719295 17.4516112 27.09325607 17.3125 31.4375 C17.27833984 32.16904297 17.24417969 32.90058594 17.20898438 33.65429688 C17.12748247 35.43569562 17.06204477 37.21781749 17 39 C14.69 39 12.38 39 10 39 C10.03222656 38.16082031 10.06445312 37.32164062 10.09765625 36.45703125 C9.98429183 24.70491931 5.86815336 15.51753598 0.81030273 5.03027344 C0 3 0 3 0 0 Z " fill="#F5F5F5" transform="translate(399,818)"/>
<path d="M0 0 C8.58 0 17.16 0 26 0 C26 1.98 26 3.96 26 6 C21.545 6.495 21.545 6.495 17 7 C16.67 17.56 16.34 28.12 16 39 C13.69 39 11.38 39 9 39 C9 28.11 9 17.22 9 6 C6.03 6 3.06 6 0 6 C0 4.02 0 2.04 0 0 Z " fill="#F8F8F7" transform="translate(664,818)"/>
<path d="M0 0 C0.66 0 1.32 0 2 0 C2 13.2 2 26.4 2 40 C8.6 40 15.2 40 22 40 C22 37.69 22 35.38 22 33 C17.71 33 13.42 33 9 33 C9 29.7 9 26.4 9 23 C12.63 23 16.26 23 20 23 C20 23.33 20 23.66 20 24 C17.03 24 14.06 24 11 24 C11 26.64 11 29.28 11 32 C11.85464844 31.98839844 12.70929687 31.97679687 13.58984375 31.96484375 C15.24693359 31.95130859 15.24693359 31.95130859 16.9375 31.9375 C18.03964844 31.92589844 19.14179687 31.91429687 20.27734375 31.90234375 C23 32 23 32 24 33 C24.125 36.5 24.125 36.5 24 40 C23 41 23 41 20.86694336 41.11352539 C19.49227905 41.10567017 19.49227905 41.10567017 18.08984375 41.09765625 C17.10048828 41.09443359 16.11113281 41.09121094 15.09179688 41.08789062 C14.05087891 41.07951172 13.00996094 41.07113281 11.9375 41.0625 C10.89271484 41.05798828 9.84792969 41.05347656 8.77148438 41.04882812 C6.1809334 41.03699913 3.59049441 41.02051689 1 41 C0.01 37.535 0.01 37.535 -1 34 C-1.33 34 -1.66 34 -2 34 C-2.07347656 33.09507812 -2.07347656 33.09507812 -2.1484375 32.171875 C-2.22320313 31.37265625 -2.29796875 30.5734375 -2.375 29.75 C-2.44460938 28.96109375 -2.51421875 28.1721875 -2.5859375 27.359375 C-3.29344758 23.32790244 -4.2166979 21.57585223 -7.56640625 19.11328125 C-8.55511719 18.51902344 -9.54382813 17.92476562 -10.5625 17.3125 C-15.97350993 14.02649007 -15.97350993 14.02649007 -17 13 C-17.125 10.5 -17.125 10.5 -17 8 C-16 7 -16 7 -13.5625 6.75 C-12.2940625 6.87375 -12.2940625 6.87375 -11 7 C-9 10 -9 10 -9 13 C-6.69 13 -4.38 13 -2 13 C-1.20439236 10.08500057 -0.74677501 7.25438581 -0.4375 4.25 C-0.35371094 3.45078125 -0.26992188 2.6515625 -0.18359375 1.828125 C-0.09271484 0.92320312 -0.09271484 0.92320312 0 0 Z " fill="#12161D" transform="translate(536,817)"/>
<path d="M0 0 C2.31 0 4.62 0 7 0 C7.09938095 4.16253275 7.17170617 8.32442479 7.21972656 12.48779297 C7.23975843 13.90197795 7.26699248 15.31608097 7.30175781 16.72998047 C7.35065489 18.77071419 7.37305123 20.8103469 7.390625 22.8515625 C7.41157227 24.07697754 7.43251953 25.30239258 7.45410156 26.56494141 C6.80916809 31.44355105 4.55278118 34.44721882 1.125 37.875 C-1.67871516 39.35931979 -3.87700004 39.21293182 -7 39 C-5.515 38.505 -5.515 38.505 -4 38 C-4.7763932 34.9254644 -4.7763932 34.9254644 -7 33 C-6.38125 32.7525 -5.7625 32.505 -5.125 32.25 C-2.51704379 30.71590811 -2.08139875 29.80371398 -1 27 C-0.63443135 24.0011881 -0.63443135 24.0011881 -0.5859375 20.703125 C-0.54726563 19.49785156 -0.50859375 18.29257812 -0.46875 17.05078125 C-0.4378125 15.79652344 -0.406875 14.54226563 -0.375 13.25 C-0.33632813 11.98027344 -0.29765625 10.71054687 -0.2578125 9.40234375 C-0.16355778 6.2683743 -0.07794834 3.13441051 0 0 Z " fill="#F1F1F1" transform="translate(612,818)"/>
<path d="M0 0 C0.33 0 0.66 0 1 0 C1.03867187 1.10408203 1.03867187 1.10408203 1.078125 2.23046875 C1.41174105 8.2756688 1.41174105 8.2756688 3.5 13.875 C6.46110826 16.39194202 9.55041408 17.97891316 13.07421875 19.59375 C15 21 15 21 15.89453125 23.53125 C15.94673828 24.75328125 15.94673828 24.75328125 16 26 C14 28 14 28 11.375 28.125 C10.59125 28.08375 9.8075 28.0425 9 28 C8.67 26.02 8.34 24.04 8 22 C5.69 22 3.38 22 1 22 C1.66 25.3 2.32 28.6 3 32 C1.68 31.01 0.36 30.02 -1 29 C-1.99 30.32 -2.98 31.64 -4 33 C-4.82011312 31.44148245 -5.63076213 29.87798284 -6.4375 28.3125 C-6.88996094 27.44238281 -7.34242188 26.57226562 -7.80859375 25.67578125 C-8.98316077 23.03781925 -9.74550478 20.87627619 -10 18 C-7.61105318 14.90842177 -5.96805899 13.27966149 -2.1875 12.1875 C-1.465625 12.125625 -0.74375 12.06375 0 12 C-0.08378906 11.38511719 -0.16757812 10.77023437 -0.25390625 10.13671875 C-0.35574219 9.32847656 -0.45757812 8.52023437 -0.5625 7.6875 C-0.66691406 6.88699219 -0.77132813 6.08648438 -0.87890625 5.26171875 C-1 3 -1 3 0 0 Z " fill="#21272E" transform="translate(511,822)"/>
<path d="M0 0 C2.31 0 4.62 0 7 0 C7 12.87 7 25.74 7 39 C4.69 39 2.38 39 0 39 C0 26.13 0 13.26 0 0 Z " fill="#FBFBFB" transform="translate(653,818)"/>
<path d="M0 0 C0.66 0 1.32 0 2 0 C2.33 5.94 2.66 11.88 3 18 C4.65 17.67 6.3 17.34 8 17 C8.33 18.32 8.66 19.64 9 21 C13.02098068 21.27823059 13.02098068 21.27823059 17 21 C18.63676257 19.0399719 18.63676257 19.0399719 20 17 C23.1875 16.75 23.1875 16.75 26 17 C25.71998862 21.01349645 25.24236211 22.72035142 22.5625 25.8125 C18.69324643 29.11552134 16.27847243 29.35315068 11.3203125 29.2734375 C7.63477378 28.83911475 5.69210531 27.49981208 3 25 C-0.02973139 19.38461133 -0.38569382 14.86912913 -0.1875 8.5625 C-0.17396484 7.73556641 -0.16042969 6.90863281 -0.14648438 6.05664062 C-0.11146992 4.0374736 -0.05767562 2.01864682 0 0 Z " fill="#EEEFEF" transform="translate(562,828)"/>
<path d="M0 0 C0.04898437 1.20398438 0.09796875 2.40796875 0.1484375 3.6484375 C0.22346343 5.22398198 0.29901133 6.79950166 0.375 8.375 C0.4059375 9.1690625 0.436875 9.963125 0.46875 10.78125 C0.51816421 15.36667375 0.51816421 15.36667375 3 19 C5.95769177 19.50010524 5.95769177 19.50010524 9 19 C9.7115625 18.01 9.7115625 18.01 10.4375 17 C10.953125 16.34 11.46875 15.68 12 15 C15.6875 14.75 15.6875 14.75 19 15 C18.05612715 19.81375154 17.04842173 23.04027203 12.91015625 26.12109375 C9.0623562 27.8915539 5.11084008 27.63824395 1 27 C-2.68623011 25.38727433 -3.75355 24.369675 -6 21 C-6 20.01 -6 19.02 -6 18 C-5.34 18 -4.68 18 -4 18 C-3.67 12.39 -3.34 6.78 -3 1 C-1 0 -1 0 0 0 Z " fill="#EDEEEE" transform="translate(378,830)"/>
<path d="M0 0 C2.875 2.1875 2.875 2.1875 5 5 C5.125 7.6875 5.125 7.6875 4 10 C1.4375 11.3125 1.4375 11.3125 -1 12 C-1 13.65 -1 15.3 -1 17 C-1.99 17 -2.98 17 -4 17 C-4 15.35 -4 13.7 -4 12 C-4.804375 11.690625 -5.60875 11.38125 -6.4375 11.0625 C-9 10 -9 10 -10 9 C-10.375 6.6875 -10.375 6.6875 -10 4 C-6.91717916 0.74101797 -4.51389141 -1.01562557 0 0 Z " fill="#22262E" transform="translate(328,823)"/>
<path d="M0 0 C5.61 0 11.22 0 17 0 C17 0.33 17 0.66 17 1 C12.38 1.33 7.76 1.66 3 2 C2.67 13.55 2.34 25.1 2 37 C5.96 37 9.92 37 14 37 C14 36.34 14 35.68 14 35 C12.35 34.67 10.7 34.34 9 34 C9 33.67 9 33.34 9 33 C12.63 33 16.26 33 20 33 C20 34.98 20 36.96 20 39 C13.4 39 6.8 39 0 39 C0 26.13 0 13.26 0 0 Z " fill="#FCFDFC" transform="translate(538,818)"/>
<path d="M0 0 C0.33 0 0.66 0 1 0 C1 12.87 1 25.74 1 39 C0.34 37.68 -0.32 36.36 -1 35 C-1.99 35.66 -2.98 36.32 -4 37 C-4.83739781 34.8765984 -5.66980283 32.7512272 -6.5 30.625 C-6.9640625 29.44164062 -7.428125 28.25828125 -7.90625 27.0390625 C-9 24 -9 24 -9 22 C-3.52380952 17 -3.52380952 17 -1 17 C-0.67 11.39 -0.34 5.78 0 0 Z " fill="#1A2027" transform="translate(651,818)"/>
<path d="M0 0 C0.33 0 0.66 0 1 0 C1 13.2 1 26.4 1 40 C7.6 40 14.2 40 21 40 C21 37.69 21 35.38 21 33 C17.04 33 13.08 33 9 33 C9 32.67 9 32.34 9 32 C13.29 32 17.58 32 22 32 C23.36623674 34.73247348 23.128426 36.98198902 23 40 C22 41 22 41 19.86694336 41.11352539 C18.49227905 41.10567017 18.49227905 41.10567017 17.08984375 41.09765625 C16.10048828 41.09443359 15.11113281 41.09121094 14.09179688 41.08789062 C13.05087891 41.07951172 12.00996094 41.07113281 10.9375 41.0625 C9.89271484 41.05798828 8.84792969 41.05347656 7.77148438 41.04882812 C5.1809334 41.03699913 2.59049441 41.02051689 0 41 C-0.268125 40.030625 -0.53625 39.06125 -0.8125 38.0625 C-1.204375 37.051875 -1.59625 36.04125 -2 35 C-2.99 34.67 -3.98 34.34 -5 34 C-4.85831863 32.56208484 -4.71148957 31.1246763 -4.5625 29.6875 C-4.48128906 28.88699219 -4.40007812 28.08648438 -4.31640625 27.26171875 C-4 25 -4 25 -3 22 C-2.67 22.66 -2.34 23.32 -2 24 C-1.97494385 23.30849854 -1.9498877 22.61699707 -1.92407227 21.90454102 C-1.80847839 18.79032134 -1.68558758 15.67643211 -1.5625 12.5625 C-1.52318359 11.47388672 -1.48386719 10.38527344 -1.44335938 9.26367188 C-1.40146484 8.22919922 -1.35957031 7.19472656 -1.31640625 6.12890625 C-1.27974854 5.17056885 -1.24309082 4.21223145 -1.20532227 3.22485352 C-1 1 -1 1 0 0 Z " fill="#0C1117" transform="translate(457,817)"/>
<path d="M0 0 C3.61328125 0.03255208 7.2265625 0.06510417 10.83984375 0.09765625 C10.83984375 5.04765625 10.83984375 9.99765625 10.83984375 15.09765625 C10.17984375 15.09765625 9.51984375 15.09765625 8.83984375 15.09765625 C8.50984375 13.11765625 8.17984375 11.13765625 7.83984375 9.09765625 C3.87984375 9.09765625 -0.08015625 9.09765625 -4.16015625 9.09765625 C-4.2578125 2.9453125 -4.2578125 2.9453125 -4.16015625 1.09765625 C-3.16015625 0.09765625 -3.16015625 0.09765625 0 0 Z " fill="#1F252D" transform="translate(469.16015625,823.90234375)"/>
<path d="M0 0 C6.3782235 -0.36103152 6.3782235 -0.36103152 8.9375 1.125 C10.50422245 3.88980433 10.38976435 5.88188517 10 9 C8.9375 10.875 8.9375 10.875 7 12 C3.3125 12.1875 3.3125 12.1875 0 12 C0 8.04 0 4.08 0 0 Z " fill="#1F232A" transform="translate(490,824)"/>
<path d="M0 0 C6.32597793 -0.35807422 6.32597793 -0.35807422 9 1.0625 C10.61647822 4.19442656 9.78665296 6.67185286 9 10 C7 12 7 12 3.375 12.125 C2.26125 12.08375 1.1475 12.0425 0 12 C0 8.04 0 4.08 0 0 Z " fill="#1F242A" transform="translate(631,824)"/>
<path d="M0 0 C0.84102896 4.55979556 1.3503989 7.98568739 -0.1875 12.4375 C-2.00328791 15.00464842 -3.06635673 15.98839887 -6 17 C-6.33 15.35 -6.66 13.7 -7 12 C-9.64 12 -12.28 12 -15 12 C-15 11.67 -15 11.34 -15 11 C-13.329375 10.87625 -13.329375 10.87625 -11.625 10.75 C-8.02198694 10.40026911 -8.02198694 10.40026911 -6.5625 8.25 C-5.93727617 5.74910469 -5.85731664 3.56830044 -6 1 C-3 0 -3 0 0 0 Z " fill="#ECEDED" transform="translate(453,839)"/>
<path d="M0 0 C6.40818182 -0.36272727 6.40818182 -0.36272727 8.9375 1.1875 C10.36405327 3.62103204 10.35571424 5.22542896 10 8 C8 10 8 10 6.0546875 10.1953125 C4.03645833 10.13020833 2.01822917 10.06510417 0 10 C0 6.7 0 3.4 0 0 Z " fill="#1E2329" transform="translate(437,840)"/>
<path d="M0 0 C0.33 0 0.66 0 1 0 C1.33 7.26 1.66 14.52 2 22 C2.33 22 2.66 22 3 22 C3 24.64 3 27.28 3 30 C3.66 30 4.32 30 5 30 C5 20.76 5 11.52 5 2 C5.33 2 5.66 2 6 2 C6.33 11.9 6.66 21.8 7 32 C4.69 32 2.38 32 0 32 C0 21.44 0 10.88 0 0 Z " fill="#F1F1F0" transform="translate(673,825)"/>
<path d="M0 0 C3.375 -0.125 3.375 -0.125 7 0 C9 2 9 2 9.3125 4.4375 C9 7 9 7 7.875 8.8125 C5.22464043 10.49106106 3.06753576 10.20450238 0 10 C0 6.7 0 3.4 0 0 Z " fill="#1C2127" transform="translate(437,824)"/>
<path d="M0 0 C1.32 0.66 2.64 1.32 4 2 C4 10.58 4 19.16 4 28 C3.67 28 3.34 28 3 28 C2.97421875 27.30132813 2.9484375 26.60265625 2.921875 25.8828125 C2.86515625 24.97273437 2.8084375 24.06265625 2.75 23.125 C2.70359375 22.22007812 2.6571875 21.31515625 2.609375 20.3828125 C2.24388852 17.82889456 2.24388852 17.82889456 -0.046875 16.6796875 C-0.69140625 16.45539062 -1.3359375 16.23109375 -2 16 C-1.67 15.21625 -1.34 14.4325 -1 13.625 C0.27410171 9.00638131 0.16923936 4.75750644 0 0 Z " fill="#1B1F27" transform="translate(452,821)"/>
<path d="M0 0 C1.2684375 0.12375 1.2684375 0.12375 2.5625 0.25 C4.5625 3.25 4.5625 3.25 4.5625 6.25 C6.8725 6.25 9.1825 6.25 11.5625 6.25 C11.5625 6.58 11.5625 6.91 11.5625 7.25 C10.655 7.37375 9.7475 7.4975 8.8125 7.625 C5.97279677 8.17109677 4.03659409 8.82263803 1.5625 10.25 C-0.9375 8.5625 -0.9375 8.5625 -3.4375 6.25 C-3.8125 3.5625 -3.8125 3.5625 -3.4375 1.25 C-2.4375 0.25 -2.4375 0.25 0 0 Z " fill="#353A42" transform="translate(522.4375,823.75)"/>
<path d="M0 0 C0.99 0 1.98 0 3 0 C3 7.92 3 15.84 3 24 C2.34 24.33 1.68 24.66 1 25 C-0.10941367 19.67132017 -0.11548069 14.53718145 -0.0625 9.125 C-0.05798828 8.24585938 -0.05347656 7.36671875 -0.04882812 6.4609375 C-0.03712337 4.30726197 -0.01919069 2.15362183 0 0 Z " fill="#F9F8F8" transform="translate(594,819)"/>
<path d="M0 0 C3.91211733 1.15585285 6.8745041 2.35534962 10 5 C9.125 9.875 9.125 9.875 8 11 C6.33382885 11.04063832 4.66611905 11.042721 3 11 C2.67 9.02 2.34 7.04 2 5 C-0.64 5 -3.28 5 -6 5 C-6 4.67 -6 4.34 -6 4 C-2.7 4 0.6 4 4 4 C2.68 2.68 1.36 1.36 0 0 Z " fill="#12161C" transform="translate(517,839)"/>
<path d="M0 0 C0.66 0.33 1.32 0.66 2 1 C1.01 3.31 0.02 5.62 -1 8 C-0.40832031 7.855625 0.18335938 7.71125 0.79296875 7.5625 C4.92529941 6.59177306 8.7229762 5.72406298 13 6 C7.47339494 9.22385295 1.33508046 10.31675402 -5 10 C-5.33 8.35 -5.66 6.7 -6 5 C-4.02 3.35 -2.04 1.7 0 0 Z " fill="#3A2820" transform="translate(569,308)"/>
<path d="M0 0 C0.66 0.33 1.32 0.66 2 1 C1.07058594 1.9178125 0.14117187 2.835625 -0.81640625 3.78125 C-10.22878043 13.09079569 -10.22878043 13.09079569 -19 23 C-19.66 22.67 -20.32 22.34 -21 22 C-14.29634939 14.34835839 -7.24500623 7.13467619 0 0 Z " fill="#7D4089" transform="translate(210,203)"/>
<path d="M0 0 C0 3.94385909 -1.22498218 4.70616592 -3.875 7.5625 C-4.68582031 8.43777344 -5.49664063 9.31304687 -6.33203125 10.21484375 C-10.48379207 14.54896595 -14.71588689 18.79638171 -19 23 C-19 20 -19 20 -16.62109375 17.36328125 C-15.56647013 16.33953776 -14.50484642 15.32297183 -13.4375 14.3125 C-12.33531438 13.24286564 -11.23505032 12.17124769 -10.13671875 11.09765625 C-9.59966309 10.57316895 -9.06260742 10.04868164 -8.50927734 9.50830078 C-5.49530366 6.49627726 -2.73007933 3.26840483 0 0 Z " fill="#FDF2D0" transform="translate(554,172)"/>
<path d="M0 0 C2.88012751 -0.30411284 5.49848048 -0.41800444 8.375 -0.375 C9.14328125 -0.38660156 9.9115625 -0.39820313 10.703125 -0.41015625 C11.44820313 -0.40628906 12.19328125 -0.40242188 12.9609375 -0.3984375 C13.97873291 -0.39336182 13.97873291 -0.39336182 15.01708984 -0.38818359 C17 0 17 0 21 3 C13.41 3 5.82 3 -2 3 C-1.34 2.01 -0.68 1.02 0 0 Z " fill="#503A31" transform="translate(489,33)"/>
<path d="M0 0 C2.625 0.375 2.625 0.375 5 1 C4.67 1.99 4.34 2.98 4 4 C3.01 3.67 2.02 3.34 1 3 C1 6.3 1 9.6 1 13 C-1.35302007 10.64697993 -1.39392208 9.72564705 -1.75 6.5 C-1.84796875 5.7059375 -1.9459375 4.911875 -2.046875 4.09375 C-2 2 -2 2 0 0 Z " fill="#312823" transform="translate(446,484)"/>
<path d="M0 0 C0.99 0.33 1.98 0.66 3 1 C2.01 1.495 2.01 1.495 1 2 C0.52998967 5.27555608 0.52998967 5.27555608 0.375 9.0625 C0.30023437 10.35285156 0.22546875 11.64320313 0.1484375 12.97265625 C0.09945312 13.97167969 0.05046875 14.97070312 0 16 C-2.31 16 -4.62 16 -7 16 C-6.35289062 15.79375 -5.70578125 15.5875 -5.0390625 15.375 C-2.69160836 14.14110973 -2.69160836 14.14110973 -2.4609375 11.25 C-2.43257812 10.1775 -2.40421875 9.105 -2.375 8 C-2.19354839 2.19354839 -2.19354839 2.19354839 0 0 Z " fill="#EFEFF0" transform="translate(631,841)"/>
<path d="M0 0 C1.32 0.33 2.64 0.66 4 1 C3.67 6.61 3.34 12.22 3 18 C2.34 18 1.68 18 1 18 C0.67 12.06 0.34 6.12 0 0 Z " fill="#EDCBA7" transform="translate(590,591)"/>
<path d="M0 0 C0 0.66 0 1.32 0 2 C-1.65 2.33 -3.3 2.66 -5 3 C-4.55527344 3.91523437 -4.11054688 4.83046875 -3.65234375 5.7734375 C-3.08644531 6.96195313 -2.52054687 8.15046875 -1.9375 9.375 C-1.08478516 11.15003906 -1.08478516 11.15003906 -0.21484375 12.9609375 C0.18605469 13.96382812 0.58695312 14.96671875 1 16 C0.67 16.66 0.34 17.32 0 18 C-1.17407021 15.73272667 -2.33939739 13.46165376 -3.5 11.1875 C-3.83386719 10.54490234 -4.16773438 9.90230469 -4.51171875 9.24023438 C-6.00239084 6.30452301 -7 4.33873483 -7 1 C-4.53721199 -0.231394 -2.7204945 -0.07159196 0 0 Z " fill="#F6EAC6" transform="translate(401,657)"/>
<path d="M0 0 C5.95345745 2.09175532 5.95345745 2.09175532 8 5 C8.1875 7.6875 8.1875 7.6875 8 10 C3.94568308 11.15837626 1.78187881 10.83691257 -2 9 C0.92824652 8.02391783 2.95613276 7.91773332 6 8 C4.26440562 4.942048 2.61527381 2.36620011 0 0 Z " fill="#3F2C23" transform="translate(451,308)"/>
<path d="M0 0 C0.33 0 0.66 0 1 0 C1 5.28 1 10.56 1 16 C-1.31 16 -3.62 16 -6 16 C-5.03126953 15.70802734 -5.03126953 15.70802734 -4.04296875 15.41015625 C-1.65819283 14.11682234 -1.65819283 14.11682234 -1.42578125 10.99609375 C-1.38839844 9.82175781 -1.35101563 8.64742187 -1.3125 7.4375 C-1.06833713 1.06833713 -1.06833713 1.06833713 0 0 Z " fill="#EEEEEE" transform="translate(415,841)"/>
<path d="M0 0 C0.33 0 0.66 0 1 0 C1.33 1.65 1.66 3.3 2 5 C2.66 4.67 3.32 4.34 4 4 C4 8.62 4 13.24 4 18 C3.67 18 3.34 18 3 18 C2.97421875 17.30132813 2.9484375 16.60265625 2.921875 15.8828125 C2.86515625 14.97273437 2.8084375 14.06265625 2.75 13.125 C2.70359375 12.22007812 2.6571875 11.31515625 2.609375 10.3828125 C2.24388852 7.82889456 2.24388852 7.82889456 -0.046875 6.6796875 C-0.69140625 6.45539062 -1.3359375 6.23109375 -2 6 C-1.34 4.02 -0.68 2.04 0 0 Z " fill="#282D35" transform="translate(452,831)"/>
<path d="M0 0 C0.33 0 0.66 0 1 0 C1.28545428 8.13544686 0.18396883 15.97649696 -1 24 C-1.33 24 -1.66 24 -2 24 C-2 17.73 -2 11.46 -2 5 C-1.34 5 -0.68 5 0 5 C0 3.35 0 1.7 0 0 Z " fill="#191011" transform="translate(319,325)"/>
<path d="M0 0 C2.33294775 -0.04241723 4.66702567 -0.04092937 7 0 C8 1 8 1 8.0625 4.5625 C8.041875 5.696875 8.02125 6.83125 8 8 C5.37684968 9.31157516 3.76966564 8.89649988 0.875 8.5625 C-0.49011719 8.40974609 -0.49011719 8.40974609 -1.8828125 8.25390625 C-2.58148438 8.17011719 -3.28015625 8.08632813 -4 8 C-4 7.67 -4 7.34 -4 7 C-0.7 7 2.6 7 6 7 C6 5.02 6 3.04 6 1 C4.02 1 2.04 1 0 1 C0 0.67 0 0.34 0 0 Z " fill="#30363E" transform="translate(470,832)"/>
<path d="M0 0 C1.77119803 0.14133499 3.54195287 0.28823208 5.3125 0.4375 C6.29863281 0.51871094 7.28476562 0.59992187 8.30078125 0.68359375 C11 1 11 1 14 2 C14 2.66 14 3.32 14 4 C8.80790596 4.21192221 4.873261 3.5912689 0 2 C0 1.34 0 0.68 0 0 Z " fill="#1A1E24" transform="translate(414,944)"/>
<path d="M0 0 C1.32 0 2.64 0 4 0 C4.33 1.98 4.66 3.96 5 6 C3.02 6 1.04 6 -1 6 C-0.67 4.02 -0.34 2.04 0 0 Z " fill="#1D2227" transform="translate(324,842)"/>
<path d="M0 0 C2.5 0.125 2.5 0.125 3.5 1.125 C3.54063832 2.79117115 3.542721 4.45888095 3.5 6.125 C2.84 5.135 2.18 4.145 1.5 3.125 C0.51 2.795 -0.48 2.465 -1.5 2.125 C-0.84 4.105 -0.18 6.085 0.5 8.125 C-0.82 7.465 -2.14 6.805 -3.5 6.125 C-3.542721 4.45888095 -3.54063832 2.79117115 -3.5 1.125 C-2.5 0.125 -2.5 0.125 0 0 Z " fill="#191C21" transform="translate(522.5,823.875)"/>
<path d="M0 0 C3.96 0 7.92 0 12 0 C12 1.98 12 3.96 12 6 C10.68 6 9.36 6 8 6 C8.33 4.68 8.66 3.36 9 2 C6.03 1.67 3.06 1.34 0 1 C0 0.67 0 0.34 0 0 Z " fill="#FDFDFD" transform="translate(466,851)"/>
<path d="M0 0 C2.31 0 4.62 0 7 0 C7.66 1.65 8.32 3.3 9 5 C8.01 4.34 7.02 3.68 6 3 C5.01 3 4.02 3 3 3 C2.34 3.99 1.68 4.98 1 6 C0.67 4.02 0.34 2.04 0 0 Z " fill="#EEEFEF" transform="translate(399,818)"/>
<path d="M0 0 C0.66 0.33 1.32 0.66 2 1 C-3.75 6 -3.75 6 -6 6 C-6 5.34 -6 4.68 -6 4 C-7.32 3.34 -8.64 2.68 -10 2 C-8.14536523 2 -6.28993212 2.03463746 -4.4375 2.125 C-1.81685373 2.26349674 -1.81685373 2.26349674 0 0 Z " fill="#282622" transform="translate(555,527)"/>
<path d="M0 0 C1.65 1.32 3.3 2.64 5 4 C4.67 5.32 4.34 6.64 4 8 C1 7 1 7 -0.25 5.125 C-1 3 -1 3 0 0 Z " fill="#41332C" transform="translate(451,380)"/>
<path d="M0 0 C0.33 0.66 0.66 1.32 1 2 C-0.92333011 6.06036357 -3.40069448 8.37347975 -7 11 C-5.5140084 6.40693504 -3.14985318 3.56430755 0 0 Z " fill="#7C408A" transform="translate(160,260)"/>
<path d="M0 0 C0.99 0.33 1.98 0.66 3 1 C2.01 1.33 1.02 1.66 0 2 C0 1.34 0 0.68 0 0 Z M-2 2 C-1.34 2.33 -0.68 2.66 0 3 C-1.36983503 6.16115776 -1.9890638 6.9927092 -5 9 C-5.1875 6.625 -5.1875 6.625 -5 4 C-4.01 3.34 -3.02 2.68 -2 2 Z " fill="#EDEEEF" transform="translate(332,831)"/>
<path d="M0 0 C0.75 1.6875 0.75 1.6875 1 4 C-1.03495023 6.97974855 -3.38774841 9.51836099 -6 12 C-4.68139111 7.38486888 -2.78644563 3.90102388 0 0 Z " fill="#7B4089" transform="translate(135,297)"/>
<path d="M0 0 C1.88391785 3.26545761 2.49287967 6.28111761 3 10 C2.01 8.68 1.02 7.36 0 6 C-0.99 6.66 -1.98 7.32 -3 8 C-1.125 2.25 -1.125 2.25 0 0 Z " fill="#F6EBCB" transform="translate(567,151)"/>
<path d="M0 0 C2.36453193 2.36453193 2.36652704 3.25869929 2.6875 6.5 C2.77386719 7.2940625 2.86023438 8.088125 2.94921875 8.90625 C3 11 3 11 2 13 C1.01 12.67 0.02 12.34 -1 12 C-0.9278125 11.38511719 -0.855625 10.77023437 -0.78125 10.13671875 C-0.64203125 8.92435547 -0.64203125 8.92435547 -0.5 7.6875 C-0.4071875 6.88699219 -0.314375 6.08648438 -0.21875 5.26171875 C0.04813463 2.88103445 0.04813463 2.88103445 0 0 Z " fill="#0F1319" transform="translate(453,839)"/>
<path d="M0 0 C0 3.58912412 -0.66436554 4.10857029 -3 6.6875 C-3.556875 7.31011719 -4.11375 7.93273437 -4.6875 8.57421875 C-5.120625 9.04472656 -5.55375 9.51523438 -6 10 C-6.33 9.34 -6.66 8.68 -7 8 C-4.69 5.36 -2.38 2.72 0 0 Z " fill="#F6E7C4" transform="translate(554,172)"/>
<path d="M0 0 C4.04648443 1.34882814 4.95502599 3.34826069 7 7 C6.67 7.99 6.34 8.98 6 10 C4.99723227 8.52270825 3.99785546 7.04311423 3 5.5625 C2.443125 4.73878906 1.88625 3.91507812 1.3125 3.06640625 C0 1 0 1 0 0 Z " fill="#EEEAEA" transform="translate(707,124)"/>
<path d="M0 0 C0.66 0.33 1.32 0.66 2 1 C2 4.96 2 8.92 2 13 C1.67 13 1.34 13 1 13 C0.63901937 11.02206479 0.28638652 9.04260427 -0.0625 7.0625 C-0.25972656 5.96035156 -0.45695313 4.85820312 -0.66015625 3.72265625 C-0.77230469 2.82417969 -0.88445313 1.92570312 -1 1 C-0.67 0.67 -0.34 0.34 0 0 Z " fill="#311E0E" transform="translate(753,442)"/>
<path d="M0 0 C0.33 0.99 0.66 1.98 1 3 C-0.875 6.1875 -0.875 6.1875 -3 9 C-3.33 9 -3.66 9 -4 9 C-4.125 6.625 -4.125 6.625 -4 4 C-2.66666667 2.66666667 -1.33333333 1.33333333 0 0 Z " fill="#9159A4" transform="translate(305,135)"/>
<path d="M0 0 C3.3 0 6.6 0 10 0 C8.515 1.485 8.515 1.485 7 3 C4.69 2.34 2.38 1.68 0 1 C0 0.67 0 0.34 0 0 Z " fill="#171C22" transform="translate(518,857)"/>
<path d="M0 0 C2 1 2 1 2.875 2.9375 C4.22909764 5.42001234 5.42178493 5.96871397 8 7 C5.125 7.1875 5.125 7.1875 2 7 C0 4 0 4 0 0 Z " fill="#E9EBEB" transform="translate(498,850)"/>
<path d="M0 0 C0.99 0 1.98 0 3 0 C2.67 1.65 2.34 3.3 2 5 C0.35 5 -1.3 5 -3 5 C-2.67 4.34 -2.34 3.68 -2 3 C-1.34 3.33 -0.68 3.66 0 4 C0 2.68 0 1.36 0 0 Z " fill="#2C3037" transform="translate(524,844)"/>
<path d="M0 0 C0.99 0.33 1.98 0.66 3 1 C1.02 2.98 -0.96 4.96 -3 7 C-3.66 6.67 -4.32 6.34 -5 6 C-3.35 4.02 -1.7 2.04 0 0 Z " fill="#81488F" transform="translate(194,219)"/>
<path d="M0 0 C1.65 0 3.3 0 5 0 C5 0.99 5 1.98 5 3 C3.35 3 1.7 3 0 3 C0 2.01 0 1.02 0 0 Z " fill="#2F3338" transform="translate(323,823)"/>
<path d="M0 0 C0.66 0.33 1.32 0.66 2 1 C2 1.66 2 2.32 2 3 C1.34 3 0.68 3 0 3 C-0.12375 3.78375 -0.2475 4.5675 -0.375 5.375 C-1 8 -1 8 -3 10 C-2.69201674 8.51988629 -2.378482 7.04092675 -2.0625 5.5625 C-1.88847656 4.73878906 -1.71445312 3.91507812 -1.53515625 3.06640625 C-1 1 -1 1 0 0 Z " fill="#261711" transform="translate(688,482)"/>
</svg>
